<?xml version="1.0" encoding="UTF-8"?>
<svg id="Layer_2" data-name="Layer 2" xmlns="http://www.w3.org/2000/svg" viewBox="0 0 1200 1200">
  <defs>
    <style>
      .cls-1 {
        fill: #fff;
        stroke-width: 0px;
      }
    </style>
  </defs>
  <g id="icons">
    <g id="icon.outline.white.rdm">
      <path class="cls-1" d="M404.97,790.96c0-89.11-35.26-152.77-109.68-152.77h-79.32v297.69h77.36c74.42,0,111.64-51.9,111.64-144.92Z"/>
      <path class="cls-1" d="M44.6,760.6c0-70.51-26.44-147.87-27.42-156.68v-3.92h337.84c138.07,0,232.08,74.43,232.08,182.14,0,113.6-85.19,170.39-211.52,181.16,65.61,12.73,119.47,47.98,155.7,109.68,26.66,45.9,45.6,88.57,65.98,127,.91,0,1.82.02,2.73.02.37,0,.75,0,1.12,0,2.7-18.07,4.52-37.04,4.52-55.53v-383.86c0-70.51-26.44-147.87-27.42-156.68v-3.92h290.84c132.04,0,246.38,67.41,303.31,180.49,17.95-56.97,27.63-117.6,27.63-180.49C1200,268.63,931.37,0,600,0S0,268.63,0,600c0,80.49,15.85,157.28,44.6,227.42v-66.82Z"/>
      <path class="cls-1" d="M215.97,1061.01c50.22,41.88,107.39,75.71,169.53,99.51-4.8-11.09-9.43-22.08-13.83-32.7-45.04-104.78-102.82-141.99-136.11-148.85h-19.58v82.04Z"/>
      <path class="cls-1" d="M818.14,642.11h-41.13v531.34c89.7-27.65,170.42-75.77,236.71-138.9,3.67-27.24,5.34-55.51,5.16-83.98,0-152.77-54.84-308.47-200.74-308.47Z"/>
      <path class="cls-1" d="M219.89,977.99c1.96,0,3.92,0,5.87-.98-1.96,0-3.92.98-5.87.98Z"/>
    </g>
  </g>
</svg>