<svg width="1080" height="540" viewBox="0 0 1080 540" fill="none" xmlns="http://www.w3.org/2000/svg">
<path d="M779.506 183.843H775.375C774.771 183.843 774.67 182.936 774.569 182.029C774.469 180.317 774.569 170.847 774.771 167.22C774.871 166.415 775.274 165.81 775.677 165.81C777.894 165.81 782.729 165.911 785.348 166.112C789.378 166.314 791.695 167.623 792.803 171.149C793.206 172.761 793.609 173.567 794.314 173.567C795.12 173.567 795.221 172.056 795.12 171.452C794.818 169.94 794.617 166.012 794.617 163.695C794.617 163.292 794.113 162.586 793.911 162.586C791.897 163.191 789.58 163.392 779.606 163.392C779.606 163.392 772.957 163.392 770.54 163.392C766.006 163.392 764.797 162.989 762.178 162.989C760.466 162.989 759.962 163.392 759.962 163.896C759.962 164.4 760.869 164.702 762.078 165.004C765.603 165.709 766.51 166.515 766.712 168.832C766.913 171.552 767.115 172.56 767.115 183.339C767.115 194.42 767.014 198.954 766.812 201.069C766.51 204.796 765.1 206.408 760.466 207.315C758.854 207.617 758.249 208.02 758.249 208.524C758.249 209.028 758.753 209.33 760.667 209.33C763.79 209.33 766.309 208.725 771.346 208.826C783.737 209.128 793.508 209.33 794.717 209.33C795.725 209.33 796.833 208.725 797.034 208.121C797.739 205.602 799.049 201.674 799.452 199.054C799.553 198.248 799.452 197.241 798.948 197.241C798.445 197.241 797.84 197.745 797.437 198.752C796.027 201.875 793.911 204.897 790.688 205.703C788.975 206.106 782.226 206.207 779.002 206.207C777.491 206.207 775.879 204.696 775.476 203.991C775.073 203.487 774.972 202.379 774.872 200.968C774.569 198.047 774.469 188.88 774.67 187.57C774.67 187.368 774.972 186.966 775.274 186.966C779.506 186.966 782.326 187.066 783.132 187.066C785.147 187.167 786.759 188.174 787.464 191.197C787.766 192.506 788.27 193.312 788.874 193.312C789.277 193.312 789.882 192.405 789.882 191.297C789.781 190.189 789.58 188.376 789.58 184.648C789.58 182.634 789.781 180.317 789.781 179.813C789.781 178.403 789.479 178 788.975 178C788.371 178 787.867 178.705 787.363 180.518C786.255 183.44 784.543 183.843 779.506 183.843Z" fill="white"/>
<path d="M667.135 163.091C666.027 163.091 665.321 163.594 665.321 163.896C665.321 164.501 666.027 164.803 667.235 165.105C671.467 165.71 672.071 167.523 672.172 170.948C672.272 174.273 672.373 175.985 672.373 185.757C672.373 193.816 672.071 199.458 671.97 201.674C671.769 204.898 671.265 206.207 666.228 207.013C664.918 207.315 664.314 207.819 664.314 208.323C664.314 208.827 664.918 209.229 666.429 209.229C669.653 209.229 672.474 208.827 674.892 208.827C692.521 208.827 699.875 209.129 700.782 209.129C701.386 209.129 702.696 208.323 702.897 207.618C703.502 205.099 704.509 201.07 705.214 198.753C705.718 197.04 705.315 196.234 704.811 196.234C704.509 196.234 703.804 196.838 703.3 197.846C700.278 203.387 697.659 205.905 695.443 205.905C688.995 205.905 685.671 205.603 683.354 205.301C682.145 205.099 680.634 203.991 680.332 202.984C680.029 201.573 679.727 197.644 679.727 185.757C679.727 178 679.929 173.97 680.231 170.646C680.533 167.422 680.835 165.811 684.462 165.105C686.175 164.803 686.678 164.501 686.678 163.896C686.678 163.393 685.973 163.091 684.764 163.091C683.354 163.091 681.339 163.393 676 163.393C672.373 163.393 668.646 163.091 667.135 163.091Z" fill="white"/>
<path d="M566.954 163.997C566.954 164.501 567.559 164.904 569.07 165.206C573.301 166.012 573.603 167.724 573.704 169.638C573.805 171.653 574.107 174.877 574.107 183.742C574.107 193.715 574.006 197.241 573.905 200.767C573.603 204.998 572.797 206.308 569.07 207.013C567.76 207.315 567.156 207.819 567.156 208.323C567.156 208.725 568.063 209.128 569.372 209.128C571.085 209.128 573.2 208.826 577.129 208.826C580.957 208.826 584.181 209.229 586.599 209.229C587.707 209.229 588.714 208.927 588.714 208.323C588.714 207.819 588.311 207.517 586.699 207.114C582.166 205.905 582.065 205.099 581.662 199.457C581.461 197.04 581.461 174.474 581.461 166.918C581.562 166.112 581.864 165.709 582.065 165.609C582.569 165.407 583.677 165.004 584.685 165.004C590.93 165.004 595.565 170.243 595.565 176.489C595.565 184.749 590.83 187.369 587.707 187.369C587.102 187.369 586.095 187.167 585.692 187.167C585.088 187.167 584.785 187.268 584.785 187.671C584.785 188.376 585.491 188.678 586.296 188.98C586.901 189.283 588.211 189.585 590.024 189.585C592.542 189.585 596.37 188.376 598.184 186.966C599.997 185.656 603.322 182.936 603.322 176.489C603.322 172.459 601.508 168.732 598.486 166.314C595.967 164.198 591.233 162.99 585.793 162.99C582.871 162.99 578.539 163.392 577.028 163.392C574.006 163.493 570.38 163.191 568.868 163.191C567.357 163.191 566.954 163.695 566.954 163.997Z" fill="white"/>
<path d="M486.66 163.09C485.351 163.09 484.444 163.392 484.444 163.997C484.444 164.702 485.451 164.803 486.459 165.105C490.69 166.213 491.496 166.918 491.496 170.243C491.496 172.862 491.597 176.186 491.597 184.145C491.597 193.917 491.395 200.666 491.294 202.782C491.194 204.998 489.682 205.804 486.56 206.912C484.645 207.517 484.343 207.819 484.343 208.222C484.343 208.826 485.25 209.229 486.358 209.229C487.668 209.229 491.597 208.826 494.921 208.826C498.548 208.826 501.57 209.128 503.887 209.128C505.096 209.128 505.902 208.826 505.902 208.323C505.902 207.819 505.499 207.416 503.887 206.912C500.059 205.905 499.656 205.3 499.354 200.364C499.152 196.939 499.051 194.32 499.051 184.548C499.051 174.877 499.152 172.661 499.454 170.243C499.756 167.321 499.857 165.911 503.282 165.206C504.794 164.904 505.902 164.501 505.902 163.795C505.902 163.191 505.096 162.99 503.585 162.99C501.57 162.99 498.749 163.392 495.122 163.392C492.201 163.392 489.28 163.09 486.66 163.09Z" fill="white"/>
<path d="M388.308 163.191C386.797 163.191 386.091 163.694 386.091 164.097C386.091 164.5 386.192 164.802 388.207 165.205C392.035 166.011 392.74 167.422 392.942 169.739C393.143 172.257 393.143 175.481 393.143 183.54C393.143 191.297 393.042 199.659 392.74 201.976C392.438 204.796 391.834 205.904 387.905 206.912C386.494 207.214 385.688 207.516 385.688 208.121C385.688 208.826 386.797 209.128 388.308 209.128C390.323 209.128 393.345 208.826 396.266 208.826C398.785 208.826 402.512 209.128 404.628 209.128C406.642 209.128 407.247 208.624 407.247 208.121C407.247 207.516 406.34 207.113 405.131 206.811C401.404 205.904 401.001 203.89 400.598 201.573C400.296 199.054 400.397 189.182 400.397 187.872C400.397 187.469 401.505 187.167 402.109 187.167C405.232 187.167 406.239 189.081 407.952 191.398C410.773 195.528 413.593 199.558 416.716 203.285C420.746 208.02 424.876 209.833 429.41 209.833C430.518 209.833 433.137 209.833 434.144 209.33C434.749 209.027 435.353 208.826 435.353 208.221C435.353 207.516 434.346 207.315 433.137 207.214C429.51 206.408 426.287 203.184 423.567 199.961C421.451 197.543 415.81 190.088 414.5 187.268C414.198 186.562 414.299 185.958 414.5 185.857C417.724 184.447 423.365 182.231 423.365 175.078C423.365 171.854 422.056 168.631 419.739 166.616C416.716 163.896 410.37 162.888 406.038 162.888C402.311 162.888 399.792 163.291 396.468 163.291L388.308 163.191ZM404.728 165.306C412.687 165.306 415.306 171.351 415.306 175.682C415.306 180.82 412.586 183.036 411.276 183.842C409.967 184.749 405.434 185.253 404.628 185.253C403.822 185.253 402.21 185.152 401.202 184.95C400.699 184.85 400.397 183.943 400.397 183.339C400.397 175.179 400.397 170.948 400.699 168.328C400.9 167.12 401.001 166.011 401.807 165.709C402.411 165.508 403.419 165.306 404.728 165.306Z" fill="white"/>
<path d="M315.728 163.391H292.054C285.103 163.391 283.491 163.089 282.08 161.175C281.778 160.772 280.569 161.074 280.569 161.981C280.569 163.291 279.763 168.328 279.461 170.846C279.058 173.365 279.763 173.868 280.166 173.868C280.871 173.868 281.073 173.465 281.879 171.854C282.584 170.443 283.491 167.824 285.103 167.018C285.909 166.615 287.923 166.414 291.348 166.414C293.162 166.414 297.897 166.414 297.897 166.414C298.501 166.414 298.702 167.119 298.702 167.622C298.702 178.502 298.4 192.807 298.098 197.844C297.796 203.788 297.695 206.004 292.054 206.911C290.946 207.113 289.938 207.616 289.938 208.321C289.938 209.027 290.946 209.228 292.255 209.228C295.781 209.228 298.501 208.825 301.422 208.825C303.538 208.825 308.575 209.228 310.892 209.228C312.504 209.228 313.612 208.926 313.612 208.321C313.612 207.717 313.108 207.213 311.597 206.911C307.165 206.105 306.56 205.199 306.258 202.378C306.157 200.967 306.157 198.65 306.157 195.527V168.025C306.157 167.018 306.661 166.414 306.862 166.414C309.079 166.414 314.821 166.514 317.541 166.716C321.168 167.018 321.671 168.025 322.779 171.954C323.182 173.365 323.485 174.07 324.089 174.07C324.593 174.07 325.399 173.365 325.399 172.257C325.399 168.126 326.003 164.097 326.205 162.787C326.205 162.082 325.399 161.377 324.996 161.78C324.089 162.585 320.966 163.391 315.728 163.391Z" fill="white"/>
<path fill-rule="evenodd" clip-rule="evenodd" d="M840.362 232.287C846.406 227.653 854.869 223.824 867.562 223.824C879.046 223.824 889.523 226.444 893.754 227.854C894.762 228.257 895.165 229.869 895.165 230.473C895.165 235.712 895.769 242.159 896.172 244.375C896.575 246.793 896.172 248.405 894.963 248.405C894.56 248.405 893.754 247.398 893.15 245.181C890.933 239.943 889.12 236.316 884.889 232.891C880.658 229.466 873.808 227.25 868.771 227.25C858.697 227.25 845.6 233.093 845.6 249.211C845.6 257.875 849.63 264.322 858.495 270.568C860.912 272.229 863.328 273.834 865.756 275.446C869.804 278.134 873.882 280.842 878.039 283.866C878.255 284.021 878.474 284.179 878.696 284.339C887.358 290.571 900 299.666 900 318.722C900 342.295 877.837 355.592 855.07 355.592C844.392 355.592 832.303 353.175 825.855 349.749C824.646 348.944 823.639 347.533 823.236 346.123C823.158 344.951 822.777 342.75 822.34 340.223C821.717 336.624 820.98 332.365 820.841 329.482C822.09 329.516 823.392 329.552 824.708 329.588C828.685 343.683 841.855 351.764 854.063 351.764C868.972 351.764 879.248 341.489 879.248 327.99C879.248 317.11 870.785 308.446 857.085 299.782C837.34 286.888 827.266 276.008 827.266 257.875C827.266 248.204 832.504 238.13 840.362 232.287ZM820.901 326.684C821.086 324.852 821.557 324.363 822.027 324.363C822.8 324.363 823.335 325.073 823.906 326.766C822.885 326.738 821.877 326.711 820.901 326.684Z" fill="white"/>
<path d="M771.209 232.881C771.209 233.686 771.612 234.089 774.029 234.694C780.275 235.903 781.686 237.918 782.29 244.566C782.693 249.2 782.693 260.282 782.693 280.631C782.693 300.981 782.29 310.853 781.686 315.487C781.283 321.129 778.663 322.741 773.223 323.748C771.612 324.151 770.604 324.554 770.604 325.561C770.604 326.367 771.813 326.77 774.231 326.77C776.044 326.569 786.924 325.964 791.76 325.964C797.602 325.964 808.684 326.166 816.542 326.569C824.399 326.77 837.898 327.173 840.518 327.173C841.324 327.173 842.533 326.569 843.338 324.957C844.749 322.741 847.368 315.084 848.778 311.055C849.987 308.033 849.786 305.615 848.778 305.615C848.174 305.615 847.57 306.219 846.361 308.234C841.324 317.099 837.496 321.733 832.257 322.338C830.645 322.539 821.377 322.741 818.153 322.741C808.684 322.741 807.475 321.733 805.662 319.114C804.856 317.905 804.05 313.875 804.05 308.033C804.05 270.96 803.848 250.409 804.453 245.775C804.856 236.91 805.662 236.507 811.505 235.097C813.116 234.694 815.131 233.888 815.131 232.881C815.131 232.276 813.721 231.672 811.706 231.672C808.885 231.672 797.2 232.478 791.961 232.478C786.118 232.478 779.066 231.672 774.432 231.672C772.619 231.672 771.209 232.276 771.209 232.881Z" fill="white"/>
<path d="M771.209 232.881C771.209 233.686 771.612 234.089 774.029 234.694C780.275 235.903 781.686 237.918 782.29 244.566C782.693 249.2 782.693 260.282 782.693 280.631C782.693 300.981 782.29 310.853 781.686 315.487C781.283 321.129 778.663 322.741 773.223 323.748C771.612 324.151 770.604 324.554 770.604 325.561C770.604 326.367 771.813 326.77 774.231 326.77C776.044 326.569 786.924 325.964 791.76 325.964C797.602 325.964 808.684 326.166 816.542 326.569C824.399 326.77 837.898 327.173 840.518 327.173C841.324 327.173 842.533 326.569 843.338 324.957C844.749 322.741 847.368 315.084 848.778 311.055C849.987 308.033 849.786 305.615 848.778 305.615C848.174 305.615 847.57 306.219 846.361 308.234C841.324 317.099 837.496 321.733 832.257 322.338C830.645 322.539 821.377 322.741 818.153 322.741C808.684 322.741 807.475 321.733 805.662 319.114C804.856 317.905 804.05 313.875 804.05 308.033C804.05 270.96 803.848 250.409 804.453 245.775C804.856 236.91 805.662 236.507 811.505 235.097C813.116 234.694 815.131 233.888 815.131 232.881C815.131 232.276 813.721 231.672 811.706 231.672C808.885 231.672 797.2 232.478 791.961 232.478C786.118 232.478 779.066 231.672 774.432 231.672C772.619 231.672 771.209 232.276 771.209 232.881Z" fill="white"/>
<path d="M693.013 231.672C691.402 231.672 690.193 232.075 690.193 233.082C690.193 233.686 691.2 234.291 692.812 234.694C698.856 236.306 700.67 237.515 701.274 246.581C701.677 255.648 701.476 267.132 701.476 275.393C701.476 289.093 701.274 308.033 700.67 314.883C700.267 321.33 696.64 322.539 691.805 323.547C690.193 323.949 688.581 324.352 688.581 325.561C688.581 326.166 690.193 326.77 692.006 326.77C693.819 326.77 705.707 325.964 711.147 325.964C728.474 325.964 743.383 326.569 759.905 326.569C761.718 326.569 763.531 325.763 764.136 324.352C764.942 322.136 767.964 312.667 769.173 310.047C769.777 308.436 769.777 306.219 768.971 306.219C768.165 306.219 766.957 307.428 766.151 308.637C764.136 312.062 758.897 318.308 757.286 319.718C755.069 321.129 754.465 322.136 743.786 322.136C735.526 322.136 731.093 322.136 728.071 321.532C724.243 320.726 724.041 318.912 723.437 312.868C723.235 310.45 723.034 289.698 723.034 283.049C723.034 281.034 723.638 280.631 724.243 280.631C741.369 280.631 742.779 280.631 746.607 281.034C748.622 281.236 751.241 283.452 752.45 288.086C753.054 289.899 753.86 291.713 754.868 291.713C755.875 291.713 756.278 290.101 756.077 287.885C755.875 285.87 755.875 282.042 755.875 279.624C755.875 276.602 756.883 269.953 756.883 268.542C756.883 265.923 756.48 265.319 756.077 265.319C754.868 265.319 754.062 266.528 753.457 268.744C752.047 272.774 750.838 274.587 748.219 274.99C746.406 275.393 739.354 275.796 735.526 275.796H724.444C723.437 275.796 723.235 274.788 723.235 274.385C723.034 263.908 723.034 243.76 723.235 238.925C723.235 237.716 724.041 236.104 725.25 236.104C745.197 236.104 746.406 236.306 749.025 236.91C751.443 237.313 755.271 239.731 757.487 246.581C758.293 248.999 759.099 250.611 759.905 250.611C760.711 250.611 761.517 248.193 761.114 246.178C760.711 242.552 760.509 235.701 760.308 234.089C760.106 233.082 759.703 231.672 759.099 231.672C757.286 231.672 748.017 232.075 741.973 232.075C735.526 232.075 721.825 232.478 710.341 232.478C706.714 232.478 697.043 231.672 693.013 231.672Z" fill="white"/>
<path d="M630.407 284.056C630.407 283.049 630.608 281.639 631.414 281.437C632.22 281.236 633.227 281.437 634.033 281.437C636.249 281.639 640.279 285.265 642.092 288.69C648.54 299.973 653.98 308.838 658.614 315.084C665.666 325.36 671.106 327.778 683.799 327.778C690.851 327.778 695.082 327.375 697.298 326.569C699.313 325.763 699.514 323.949 697.096 323.748C694.679 323.547 690.448 323.345 685.612 318.51C682.187 315.286 677.956 309.846 673.725 302.996C667.882 293.929 662.039 283.251 659.621 278.214C659.42 277.609 659.42 277.005 660.024 276.602C668.285 273.378 676.747 266.931 676.747 255.043C676.747 248.394 673.926 242.552 668.486 238.119C663.046 233.888 654.383 231.672 640.884 231.672C634.033 231.672 625.974 232.478 619.124 232.478C613.885 232.478 605.625 231.672 602.199 231.672C601.192 231.672 598.573 232.075 598.573 233.082C598.573 233.888 599.983 234.492 601.796 234.895C607.438 235.903 609.05 238.119 609.453 241.947C609.654 246.581 609.856 254.439 609.856 274.99C609.856 296.548 609.654 306.219 609.251 314.681C609.251 319.92 606.43 322.338 601.595 323.547C599.782 323.949 597.968 324.151 597.968 325.561C597.968 326.569 600.789 326.77 602.199 326.77C605.02 326.77 611.266 325.964 617.109 325.964C631.011 325.964 631.414 326.77 637.66 326.77C640.279 326.77 641.488 325.964 641.488 325.158C641.488 324.554 640.279 323.949 638.264 323.345C633.429 322.136 631.414 320.726 631.011 314.681C631.011 311.458 630.407 307.831 630.407 297.153V284.056ZM636.652 235.097C643.1 235.097 648.338 238.119 651.36 242.552C654.584 247.186 655.592 253.633 655.592 258.67C655.592 266.125 652.569 271.766 649.144 274.385C646.525 275.997 643.906 277.408 640.279 277.811C638.063 278.214 635.041 278.214 632.018 278.214C631.213 278.214 630.81 277.408 630.608 275.997C630.407 273.579 630.81 242.35 631.011 240.134C631.213 237.515 631.817 236.306 632.22 235.903C633.227 235.5 635.645 235.097 636.652 235.097Z" fill="white"/>
<path d="M538.789 284.056C538.789 283.049 538.99 281.639 539.796 281.437C540.602 281.236 541.609 281.437 542.415 281.437C544.631 281.639 548.661 285.265 550.474 288.69C556.922 299.973 562.362 308.838 566.996 315.084C574.048 325.36 579.488 327.778 592.181 327.778C599.233 327.778 603.464 327.375 605.68 326.569C607.695 325.763 607.896 323.949 605.478 323.748C603.061 323.547 598.83 323.345 593.994 318.51C590.569 315.286 586.338 309.846 582.107 302.996C576.264 293.929 570.421 283.251 568.003 278.214C567.802 277.609 567.802 277.005 568.406 276.602C576.667 273.378 585.129 266.931 585.129 255.043C585.129 248.394 582.308 242.552 576.868 238.119C571.428 233.888 562.765 231.672 549.266 231.672C542.415 231.672 534.356 232.478 527.506 232.478C522.267 232.478 514.006 231.672 510.581 231.672C509.574 231.672 506.955 232.075 506.955 233.082C506.955 233.888 508.365 234.492 510.178 234.895C515.82 235.903 517.432 238.119 517.835 241.947C518.036 246.581 518.238 254.439 518.238 274.99C518.238 296.548 518.036 306.219 517.633 314.681C517.633 319.92 514.812 322.338 509.977 323.547C508.164 323.949 506.35 324.151 506.35 325.561C506.35 326.569 509.171 326.77 510.581 326.77C513.402 326.77 519.648 325.964 525.491 325.964C539.393 325.964 539.796 326.77 546.042 326.77C548.661 326.77 549.87 325.964 549.87 325.158C549.87 324.554 548.661 323.949 546.646 323.345C541.811 322.136 539.796 320.726 539.393 314.681C539.393 311.458 538.789 307.831 538.789 297.153V284.056ZM545.034 235.097C551.482 235.097 556.72 238.119 559.742 242.552C562.966 247.186 563.974 253.633 563.974 258.67C563.974 266.125 560.951 271.766 557.526 274.385C554.907 275.997 552.288 277.408 548.661 277.811C546.445 278.214 543.423 278.214 540.4 278.214C539.594 278.214 539.191 277.408 538.99 275.997C538.789 273.579 539.192 242.35 539.393 240.134C539.594 237.515 540.199 236.306 540.602 235.903C541.609 235.5 544.027 235.097 545.034 235.097Z" fill="white"/>
<path d="M457.414 233.082C457.414 233.686 459.227 234.694 460.235 234.895C464.667 235.903 467.69 237.313 468.294 241.746C468.697 244.365 468.898 262.095 468.898 276.4C468.898 288.489 468.898 302.593 468.496 311.256C468.294 319.517 466.884 322.136 460.436 323.547C458.623 323.949 457.213 324.554 457.213 325.36C457.213 325.964 458.623 326.972 460.638 326.972C466.078 326.972 473.13 325.964 479.174 325.964C485.42 325.964 494.083 326.77 498.718 326.77C500.531 326.77 502.143 326.367 502.143 325.158C502.143 324.554 501.337 323.949 499.523 323.547C493.882 322.338 491.464 320.726 491.061 316.293C490.658 312.667 490.457 298.16 490.457 275.796C490.457 269.55 490.457 250.611 490.86 244.768C491.061 238.522 491.867 236.507 497.912 235.097C500.128 234.694 501.337 233.686 501.337 232.881C501.337 232.075 500.128 231.672 497.912 231.672C493.278 231.672 481.793 232.478 478.368 232.478C473.331 232.478 464.667 231.672 460.839 231.672C458.623 231.672 457.414 232.276 457.414 233.082Z" fill="white"/>
<path d="M353.092 232.881C353.092 233.686 354.301 234.492 356.114 234.895C362.965 236.104 364.375 238.925 364.577 244.768C364.577 253.834 364.577 270.557 364.98 283.855C365.584 305.212 368.808 315.084 380.292 322.539C386.135 326.77 395.202 328.986 405.276 328.986C414.342 328.986 425.222 326.77 433.684 318.51C442.751 309.846 444.967 296.548 445.37 273.982C445.37 265.923 445.37 254.842 445.975 245.574C446.378 239.328 447.183 236.507 453.832 235.097C456.452 234.694 458.063 234.089 458.063 233.283C458.063 232.276 456.854 231.873 454.437 231.873C450.609 231.873 446.579 232.478 441.945 232.478C435.901 232.478 433.684 231.873 429.856 231.873C428.043 231.873 426.632 232.276 426.632 233.082C426.632 234.089 428.647 234.694 429.655 234.895C431.669 235.298 433.483 235.903 434.49 236.306C438.318 237.918 440.736 239.126 440.736 267.535C440.736 271.363 440.736 277.811 440.736 282.646C440.132 309.846 432.072 320.927 414.141 320.927C408.499 320.927 400.239 319.517 393.59 312.667C389.157 307.831 386.538 299.369 386.538 286.676V276.602C386.538 267.334 386.538 254.842 386.739 246.984C386.941 238.32 388.15 236.104 394.396 234.895C395.806 234.694 397.821 234.089 397.821 233.082C397.821 232.276 396.813 231.672 394.597 231.672C389.762 231.672 383.314 232.478 376.061 232.478C368.808 232.478 362.562 231.672 356.517 231.672C354.503 231.672 353.092 232.276 353.092 232.881Z" fill="white"/>
<path d="M306.629 230.854C291.317 230.854 277.213 237.1 268.146 246.771C258.475 256.644 255.252 269.539 255.252 278.605C255.252 299.559 264.318 309.835 270.967 315.879C276.206 320.715 282.452 323.535 289.1 327.162C291.518 327.766 299.174 331.595 303.808 334.214C322.143 345.094 337.254 354.563 354.38 363.227C375.334 373.704 396.288 379.95 417.04 379.95C437.591 379.95 451.09 373.502 458.545 367.256C459.955 366.249 460.761 365.242 460.761 364.436C460.761 363.428 459.552 363.831 458.142 364.637C451.09 368.264 443.031 370.279 434.166 370.279C415.831 370.279 398.303 365.443 380.169 356.578C359.82 347.108 342.09 335.624 331.008 327.565C329.598 326.558 329.195 325.953 329.195 325.752C329.195 325.349 329.396 324.946 330.605 324.543C335.239 322.528 340.679 318.901 345.515 314.469C351.761 308.223 359.82 298.149 359.82 279.814C359.82 266.718 352.97 251.808 342.493 243.145C335.642 237.302 324.158 230.854 306.629 230.854ZM306.428 233.877C315.293 233.877 322.949 239.72 328.187 248.383C333.627 257.853 335.844 270.748 335.844 287.067C335.844 297.746 331.613 319.707 320.934 325.147C317.912 326.558 315.494 327.968 311.465 327.968C307.234 327.968 298.57 326.155 289.705 315.678C284.466 309.029 278.825 297.343 278.825 279.411C278.825 263.696 282.049 248.988 291.518 240.123C296.354 235.69 301.189 233.877 306.428 233.877Z" fill="white"/>
<path d="M226.743 223.824C214.05 223.824 205.588 227.653 199.544 232.287C191.686 238.13 186.447 248.204 186.447 257.875C186.447 276.008 196.521 286.888 216.266 299.782C229.967 308.446 238.429 317.11 238.429 327.99C238.429 341.489 228.154 351.764 213.244 351.764C200.752 351.764 187.253 343.302 183.627 328.594C182.821 325.572 182.216 324.363 181.209 324.363C180.604 324.363 180 325.169 180 328.594C180 333.228 182.216 343.101 182.418 346.123C182.821 347.533 183.828 348.944 185.037 349.749C191.484 353.175 203.573 355.592 214.252 355.592C237.019 355.592 259.182 342.295 259.182 318.722C259.182 299.178 245.884 290.111 237.22 283.866C230.571 279.03 224.124 275 217.677 270.568C208.812 264.322 204.782 257.875 204.782 249.211C204.782 233.093 217.878 227.25 227.952 227.25C232.989 227.25 239.84 229.466 244.071 232.891C248.302 236.316 250.115 239.943 252.331 245.181C252.936 247.398 253.742 248.405 254.145 248.405C255.354 248.405 255.756 246.793 255.354 244.375C254.951 242.159 254.346 235.712 254.346 230.473C254.346 229.869 253.943 228.257 252.936 227.854C248.705 226.444 238.228 223.824 226.743 223.824Z" fill="white"/>
</svg>
