<svg width="509" height="540" viewBox="0 0 509 540" fill="none" xmlns="http://www.w3.org/2000/svg">
<path fill-rule="evenodd" clip-rule="evenodd" d="M508.834 254.417C508.834 355.579 449.792 442.951 364.287 483.953C338.659 506.625 304.205 521.168 267.381 526.684C263.17 521.432 258.969 516.463 254.781 511.765C298.9 502.091 327.657 466.824 327.657 422.597C327.657 380.583 294.758 347.128 241.492 313.672C164.727 263.878 125.561 221.864 125.561 151.841C125.561 114.495 145.927 75.5938 176.477 53.0308C183.185 47.9227 190.659 43.0682 199.062 38.7387C102.895 63.3471 31.8021 150.58 31.8021 254.417C31.8021 315.22 56.1786 370.329 95.6919 410.506C95.5869 410.844 95.4885 411.191 95.3964 411.546C83.2649 412.324 72.6351 418.024 65.7815 425.138C24.9018 379.996 0 320.115 0 254.417C0 113.906 113.906 0 254.417 0C394.928 0 508.834 113.906 508.834 254.417ZM477.032 254.417C477.032 319.524 449.082 378.103 404.526 418.811C407.015 408.767 408.339 398.092 408.339 386.807C408.339 313.222 359.19 278.1 325.513 254.035L325.475 254.007C324.625 253.4 323.786 252.801 322.957 252.207C306.797 240.534 290.942 230.076 275.203 219.694L275.201 219.693C265.765 213.469 256.37 207.273 246.975 200.857C212.509 176.738 196.843 151.841 196.843 118.386C196.843 58.0938 244.617 35.0333 283.209 33.647C392.555 47.7676 477.032 141.227 477.032 254.417Z" fill="white"/>
<path d="M128.254 437.855C128.006 437.684 127.758 437.512 127.51 437.34C127.501 437.485 127.491 437.629 127.48 437.773C127.738 437.799 127.996 437.827 128.254 437.855Z" fill="white"/>
<path d="M97.286 417.827C81.8539 418.211 69.3019 427.95 65.326 436.716C65.3905 439.31 66.6011 443.022 68.0235 443.998C69.8951 445.282 72.6055 446.526 75.7115 447.584C57.3087 451.857 42.4971 458.361 32.4382 462.366C56.9758 471.494 89.447 464.399 126.89 477.35C181.938 496.389 243.3 535.241 269.682 540C214.95 467.544 162.316 445.772 119.433 443.522C120.583 441.472 121.21 438.804 121.21 435.326C121.085 430.278 118.572 425.419 113.811 422.105C111.05 412.501 108.778 408.592 105.195 408.592C103.336 408.592 101.477 410.539 100.781 417.899C99.6604 417.822 98.4952 417.797 97.286 417.827Z" fill="white"/>
</svg>
