<svg width="720" height="810" viewBox="0 0 720 810" fill="none" xmlns="http://www.w3.org/2000/svg">
<path d="M599.505 613.167H595.375C594.77 613.167 594.67 612.261 594.569 611.354C594.468 609.641 594.569 600.172 594.77 596.545C594.871 595.739 595.274 595.135 595.677 595.135C597.893 595.135 602.729 595.236 605.348 595.437C609.378 595.639 611.695 596.948 612.803 600.474C613.206 602.086 613.609 602.892 614.314 602.892C615.12 602.892 615.221 601.381 615.12 600.776C614.818 599.265 614.616 595.336 614.616 593.019C614.616 592.616 614.112 591.911 613.911 591.911C611.896 592.516 609.579 592.717 599.606 592.717C599.606 592.717 592.957 592.717 590.539 592.717C586.006 592.717 584.797 592.314 582.178 592.314C580.465 592.314 579.962 592.717 579.962 593.221C579.962 593.724 580.868 594.027 582.077 594.329C585.603 595.034 586.51 595.84 586.711 598.157C586.913 600.877 587.114 601.884 587.114 612.664C587.114 623.745 587.013 628.278 586.812 630.394C586.51 634.121 585.099 635.733 580.465 636.64C578.853 636.942 578.249 637.345 578.249 637.849C578.249 638.352 578.753 638.654 580.667 638.654C583.79 638.654 586.308 638.05 591.345 638.151C603.736 638.453 613.508 638.654 614.717 638.654C615.724 638.654 616.832 638.05 617.034 637.446C617.739 634.927 619.049 630.998 619.452 628.379C619.552 627.573 619.452 626.566 618.948 626.566C618.444 626.566 617.84 627.069 617.437 628.077C616.027 631.2 613.911 634.222 610.687 635.028C608.975 635.431 602.225 635.532 599.001 635.532C597.49 635.532 595.879 634.02 595.476 633.315C595.073 632.812 594.972 631.703 594.871 630.293C594.569 627.372 594.468 618.204 594.67 616.895C594.67 616.693 594.972 616.29 595.274 616.29C599.505 616.29 602.326 616.391 603.132 616.391C605.147 616.492 606.758 617.499 607.464 620.521C607.766 621.831 608.27 622.637 608.874 622.637C609.277 622.637 609.881 621.73 609.881 620.622C609.781 619.514 609.579 617.701 609.579 613.973C609.579 611.958 609.781 609.641 609.781 609.138C609.781 607.727 609.478 607.324 608.975 607.324C608.37 607.324 607.867 608.03 607.363 609.843C606.255 612.764 604.542 613.167 599.505 613.167Z" fill="white"/>
<path d="M487.134 592.416C486.026 592.416 485.321 592.92 485.321 593.222C485.321 593.826 486.026 594.129 487.235 594.431C491.466 595.035 492.07 596.849 492.171 600.274C492.272 603.598 492.373 605.311 492.373 615.083C492.373 623.142 492.07 628.783 491.97 630.999C491.768 634.223 491.265 635.533 486.228 636.339C484.918 636.641 484.313 637.145 484.313 637.648C484.313 638.152 484.918 638.555 486.429 638.555C489.653 638.555 492.473 638.152 494.891 638.152C512.521 638.152 519.875 638.454 520.781 638.454C521.386 638.454 522.695 637.648 522.897 636.943C523.501 634.425 524.509 630.395 525.214 628.078C525.718 626.365 525.315 625.559 524.811 625.559C524.509 625.559 523.804 626.164 523.3 627.171C520.278 632.712 517.658 635.231 515.442 635.231C508.995 635.231 505.67 634.928 503.353 634.626C502.144 634.425 500.633 633.316 500.331 632.309C500.029 630.899 499.727 626.97 499.727 615.083C499.727 607.326 499.928 603.296 500.23 599.972C500.533 596.748 500.835 595.136 504.461 594.431C506.174 594.129 506.678 593.826 506.678 593.222C506.678 592.718 505.973 592.416 504.764 592.416C503.353 592.416 501.339 592.718 495.999 592.718C492.373 592.718 488.645 592.416 487.134 592.416Z" fill="white"/>
<path d="M386.954 593.322C386.954 593.826 387.559 594.229 389.07 594.531C393.301 595.337 393.603 597.049 393.704 598.963C393.804 600.978 394.107 604.202 394.107 613.067C394.107 623.04 394.006 626.566 393.905 630.092C393.603 634.323 392.797 635.633 389.07 636.338C387.76 636.64 387.156 637.144 387.156 637.647C387.156 638.05 388.062 638.453 389.372 638.453C391.084 638.453 393.2 638.151 397.129 638.151C400.957 638.151 404.181 638.554 406.598 638.554C407.707 638.554 408.714 638.252 408.714 637.647C408.714 637.144 408.311 636.842 406.699 636.439C402.166 635.23 402.065 634.424 401.662 628.782C401.461 626.365 401.461 603.799 401.461 596.243C401.561 595.437 401.864 595.034 402.065 594.934C402.569 594.732 403.677 594.329 404.684 594.329C410.93 594.329 415.564 599.568 415.564 605.814C415.564 614.074 410.829 616.694 407.707 616.694C407.102 616.694 406.095 616.492 405.692 616.492C405.087 616.492 404.785 616.593 404.785 616.996C404.785 617.701 405.49 618.003 406.296 618.305C406.901 618.608 408.21 618.91 410.024 618.91C412.542 618.91 416.37 617.701 418.184 616.291C419.997 614.981 423.321 612.261 423.321 605.814C423.321 601.784 421.508 598.057 418.486 595.639C415.967 593.523 411.232 592.314 405.792 592.314C402.871 592.314 398.539 592.717 397.028 592.717C394.006 592.818 390.379 592.516 388.868 592.516C387.357 592.516 386.954 593.02 386.954 593.322Z" fill="white"/>
<path d="M306.661 592.415C305.351 592.415 304.444 592.717 304.444 593.322C304.444 594.027 305.452 594.128 306.459 594.43C310.69 595.538 311.496 596.243 311.496 599.568C311.496 602.187 311.597 605.511 311.597 613.47C311.597 623.242 311.396 629.991 311.295 632.107C311.194 634.323 309.683 635.129 306.56 636.237C304.646 636.842 304.344 637.144 304.344 637.547C304.344 638.151 305.25 638.554 306.359 638.554C307.668 638.554 311.597 638.151 314.921 638.151C318.548 638.151 321.57 638.453 323.887 638.453C325.096 638.453 325.902 638.151 325.902 637.647C325.902 637.144 325.499 636.741 323.887 636.237C320.059 635.23 319.656 634.625 319.354 629.689C319.153 626.264 319.052 623.645 319.052 613.873C319.052 604.202 319.153 601.985 319.455 599.568C319.757 596.646 319.858 595.236 323.283 594.531C324.794 594.229 325.902 593.826 325.902 593.12C325.902 592.516 325.096 592.314 323.585 592.314C321.57 592.314 318.75 592.717 315.123 592.717C312.201 592.717 309.28 592.415 306.661 592.415Z" fill="white"/>
<path d="M208.308 592.516C206.797 592.516 206.091 593.02 206.091 593.423C206.091 593.826 206.192 594.128 208.207 594.531C212.035 595.337 212.74 596.747 212.942 599.064C213.143 601.583 213.143 604.806 213.143 612.866C213.143 620.623 213.042 628.984 212.74 631.301C212.438 634.122 211.834 635.23 207.905 636.237C206.494 636.539 205.688 636.842 205.688 637.446C205.688 638.151 206.797 638.454 208.308 638.454C210.323 638.454 213.345 638.151 216.266 638.151C218.785 638.151 222.512 638.454 224.628 638.454C226.642 638.454 227.247 637.95 227.247 637.446C227.247 636.842 226.34 636.439 225.131 636.137C221.404 635.23 221.001 633.215 220.598 630.898C220.296 628.38 220.397 618.507 220.397 617.197C220.397 616.794 221.505 616.492 222.109 616.492C225.232 616.492 226.239 618.406 227.952 620.723C230.773 624.854 233.593 628.883 236.716 632.611C240.746 637.345 244.876 639.159 249.41 639.159C250.518 639.159 253.137 639.159 254.144 638.655C254.749 638.353 255.353 638.151 255.353 637.547C255.353 636.842 254.346 636.64 253.137 636.539C249.51 635.734 246.287 632.51 243.567 629.286C241.451 626.868 235.81 619.414 234.5 616.593C234.198 615.888 234.299 615.283 234.5 615.183C237.724 613.772 243.365 611.556 243.365 604.403C243.365 601.18 242.056 597.956 239.739 595.941C236.716 593.221 230.37 592.214 226.038 592.214C222.311 592.214 219.792 592.617 216.468 592.617L208.308 592.516ZM224.728 594.632C232.687 594.632 235.306 600.676 235.306 605.008C235.306 610.146 232.586 612.362 231.276 613.168C229.967 614.074 225.434 614.578 224.628 614.578C223.822 614.578 222.21 614.477 221.202 614.276C220.699 614.175 220.397 613.269 220.397 612.664C220.397 604.504 220.397 600.273 220.699 597.654C220.9 596.445 221.001 595.337 221.807 595.035C222.411 594.833 223.419 594.632 224.728 594.632Z" fill="white"/>
<path d="M135.728 592.717H112.054C105.103 592.717 103.491 592.414 102.08 590.5C101.778 590.097 100.569 590.4 100.569 591.306C100.569 592.616 99.7634 597.653 99.4611 600.171C99.0582 602.69 99.7634 603.194 100.166 603.194C100.871 603.194 101.073 602.791 101.879 601.179C102.584 599.768 103.491 597.149 105.103 596.343C105.909 595.94 107.923 595.739 111.348 595.739C113.162 595.739 117.897 595.739 117.897 595.739C118.501 595.739 118.702 596.444 118.702 596.948C118.702 607.828 118.4 622.133 118.098 627.17C117.796 633.113 117.695 635.33 112.054 636.236C110.946 636.438 109.938 636.941 109.938 637.647C109.938 638.352 110.946 638.553 112.255 638.553C115.781 638.553 118.501 638.15 121.422 638.15C123.538 638.15 128.575 638.553 130.892 638.553C132.504 638.553 133.612 638.251 133.612 637.647C133.612 637.042 133.108 636.538 131.597 636.236C127.165 635.43 126.56 634.524 126.258 631.703C126.157 630.293 126.157 627.976 126.157 624.853V597.351C126.157 596.343 126.661 595.739 126.862 595.739C129.079 595.739 134.821 595.84 137.541 596.041C141.168 596.343 141.671 597.351 142.779 601.279C143.182 602.69 143.485 603.395 144.089 603.395C144.593 603.395 145.399 602.69 145.399 601.582C145.399 597.451 146.003 593.422 146.205 592.112C146.205 591.407 145.399 590.702 144.996 591.105C144.089 591.911 140.966 592.717 135.728 592.717Z" fill="white"/>
<path fill-rule="evenodd" clip-rule="evenodd" d="M660.362 661.612C666.407 656.978 674.869 653.149 687.562 653.149C699.046 653.149 709.523 655.769 713.755 657.179C714.762 657.582 715.165 659.194 715.165 659.798C715.165 665.037 715.769 671.484 716.172 673.7C716.575 676.118 716.172 677.73 714.963 677.73C714.56 677.73 713.754 676.723 713.15 674.506C710.934 669.268 709.12 665.641 704.889 662.216C700.658 658.791 693.808 656.575 688.771 656.575C678.697 656.575 665.601 662.417 665.601 678.536C665.601 687.2 669.63 693.647 678.495 699.893C680.912 701.554 683.329 703.159 685.756 704.771C689.804 707.459 693.882 710.167 698.039 713.19C698.255 713.346 698.475 713.504 698.696 713.664C707.358 719.896 720 728.991 720 748.046C720 771.62 697.838 784.917 675.07 784.917C664.392 784.917 652.303 782.5 645.856 779.074C644.647 778.268 643.639 776.858 643.237 775.448C643.158 774.276 642.777 772.075 642.34 769.548C641.717 765.949 640.98 761.69 640.842 758.807C642.09 758.841 643.393 758.877 644.708 758.913C648.686 773.008 661.855 781.089 674.063 781.089C688.972 781.089 699.248 770.814 699.248 757.315C699.248 746.435 690.786 737.771 677.085 729.107C657.34 716.213 647.266 705.333 647.266 687.2C647.266 677.528 652.505 667.455 660.362 661.612ZM640.901 756.009C641.086 754.176 641.557 753.688 642.028 753.688C642.8 753.688 643.335 754.398 643.906 756.091C642.886 756.063 641.878 756.036 640.901 756.009Z" fill="white"/>
<path d="M591.209 662.205C591.209 663.011 591.612 663.414 594.03 664.018C600.276 665.227 601.686 667.242 602.29 673.891C602.693 678.525 602.693 689.606 602.693 709.956C602.693 730.305 602.29 740.178 601.686 744.812C601.283 750.453 598.664 752.065 593.224 753.072C591.612 753.475 590.604 753.878 590.604 754.886C590.604 755.692 591.813 756.095 594.231 756.095C596.045 755.893 606.924 755.289 611.76 755.289C617.603 755.289 628.684 755.49 636.542 755.893C644.4 756.095 657.899 756.498 660.518 756.498C661.324 756.498 662.533 755.893 663.339 754.281C664.749 752.065 667.368 744.409 668.779 740.379C669.988 737.357 669.786 734.939 668.779 734.939C668.174 734.939 667.57 735.544 666.361 737.558C661.324 746.424 657.496 751.058 652.257 751.662C650.646 751.864 641.377 752.065 638.154 752.065C628.684 752.065 627.475 751.058 625.662 748.438C624.856 747.23 624.05 743.2 624.05 737.357C624.05 700.285 623.849 679.734 624.453 675.1C624.856 666.235 625.662 665.832 631.505 664.421C633.117 664.018 635.132 663.212 635.132 662.205C635.132 661.601 633.721 660.996 631.706 660.996C628.886 660.996 617.2 661.802 611.961 661.802C606.119 661.802 599.067 660.996 594.433 660.996C592.619 660.996 591.209 661.601 591.209 662.205Z" fill="white"/>
<path d="M591.209 662.205C591.209 663.011 591.612 663.414 594.03 664.018C600.276 665.227 601.686 667.242 602.29 673.891C602.693 678.525 602.693 689.606 602.693 709.956C602.693 730.305 602.29 740.178 601.686 744.812C601.283 750.453 598.664 752.065 593.224 753.072C591.612 753.475 590.604 753.878 590.604 754.886C590.604 755.692 591.813 756.095 594.231 756.095C596.045 755.893 606.924 755.289 611.76 755.289C617.603 755.289 628.684 755.49 636.542 755.893C644.4 756.095 657.899 756.498 660.518 756.498C661.324 756.498 662.533 755.893 663.339 754.281C664.749 752.065 667.368 744.409 668.779 740.379C669.988 737.357 669.786 734.939 668.779 734.939C668.174 734.939 667.57 735.544 666.361 737.558C661.324 746.424 657.496 751.058 652.257 751.662C650.646 751.864 641.377 752.065 638.154 752.065C628.684 752.065 627.475 751.058 625.662 748.438C624.856 747.23 624.05 743.2 624.05 737.357C624.05 700.285 623.849 679.734 624.453 675.1C624.856 666.235 625.662 665.832 631.505 664.421C633.117 664.018 635.132 663.212 635.132 662.205C635.132 661.601 633.721 660.996 631.706 660.996C628.886 660.996 617.2 661.802 611.961 661.802C606.119 661.802 599.067 660.996 594.433 660.996C592.619 660.996 591.209 661.601 591.209 662.205Z" fill="white"/>
<path d="M513.014 660.996C511.402 660.996 510.193 661.399 510.193 662.406C510.193 663.011 511.2 663.615 512.812 664.018C518.857 665.63 520.67 666.839 521.274 675.906C521.677 684.972 521.476 696.457 521.476 704.717C521.476 718.418 521.274 737.357 520.67 744.207C520.267 750.655 516.64 751.864 511.805 752.871C510.193 753.274 508.581 753.677 508.581 754.886C508.581 755.49 510.193 756.095 512.006 756.095C513.82 756.095 525.707 755.289 531.147 755.289C548.474 755.289 563.384 755.893 579.905 755.893C581.718 755.893 583.532 755.087 584.136 753.677C584.942 751.461 587.964 741.991 589.173 739.372C589.778 737.76 589.778 735.544 588.972 735.544C588.166 735.544 586.957 736.753 586.151 737.961C584.136 741.387 578.898 747.632 577.286 749.043C575.069 750.453 574.465 751.461 563.787 751.461C555.526 751.461 551.093 751.461 548.071 750.856C544.243 750.05 544.042 748.237 543.437 742.193C543.236 739.775 543.034 719.022 543.034 712.373C543.034 710.359 543.639 709.956 544.243 709.956C561.369 709.956 562.779 709.956 566.607 710.359C568.622 710.56 571.241 712.776 572.45 717.41C573.055 719.224 573.861 721.037 574.868 721.037C575.875 721.037 576.278 719.425 576.077 717.209C575.875 715.194 575.875 711.366 575.875 708.948C575.875 705.926 576.883 699.277 576.883 697.867C576.883 695.248 576.48 694.643 576.077 694.643C574.868 694.643 574.062 695.852 573.458 698.068C572.047 702.098 570.838 703.911 568.219 704.314C566.406 704.717 559.354 705.12 555.526 705.12H544.445C543.437 705.12 543.236 704.113 543.236 703.71C543.034 693.233 543.034 673.085 543.236 668.249C543.236 667.04 544.042 665.429 545.25 665.429C565.197 665.429 566.406 665.63 569.025 666.235C571.443 666.638 575.271 669.055 577.487 675.906C578.293 678.323 579.099 679.935 579.905 679.935C580.711 679.935 581.517 677.517 581.114 675.503C580.711 671.876 580.509 665.026 580.308 663.414C580.106 662.406 579.704 660.996 579.099 660.996C577.286 660.996 568.018 661.399 561.973 661.399C555.526 661.399 541.825 661.802 530.341 661.802C526.714 661.802 517.043 660.996 513.014 660.996Z" fill="white"/>
<path d="M450.407 713.381C450.407 712.373 450.609 710.963 451.414 710.762C452.22 710.56 453.228 710.762 454.034 710.762C456.25 710.963 460.28 714.59 462.093 718.015C468.54 729.298 473.98 738.163 478.614 744.409C485.666 754.684 491.106 757.102 503.799 757.102C510.851 757.102 515.082 756.699 517.298 755.893C519.313 755.087 519.515 753.274 517.097 753.072C514.679 752.871 510.448 752.67 505.613 747.834C502.187 744.61 497.956 739.17 493.725 732.32C487.882 723.253 482.039 712.575 479.622 707.538C479.42 706.934 479.42 706.329 480.025 705.926C488.285 702.702 496.747 696.255 496.747 684.368C496.747 677.719 493.927 671.876 488.487 667.443C483.047 663.212 474.383 660.996 460.884 660.996C454.034 660.996 445.975 661.802 439.124 661.802C433.886 661.802 425.625 660.996 422.2 660.996C421.192 660.996 418.573 661.399 418.573 662.406C418.573 663.212 419.984 663.817 421.797 664.22C427.438 665.227 429.05 667.443 429.453 671.272C429.655 675.906 429.856 683.763 429.856 704.314C429.856 725.873 429.655 735.544 429.252 744.006C429.252 749.244 426.431 751.662 421.595 752.871C419.782 753.274 417.969 753.475 417.969 754.886C417.969 755.893 420.789 756.095 422.2 756.095C425.021 756.095 431.266 755.289 437.109 755.289C451.012 755.289 451.414 756.095 457.66 756.095C460.28 756.095 461.488 755.289 461.488 754.483C461.488 753.878 460.28 753.274 458.265 752.67C453.429 751.461 451.414 750.05 451.012 744.006C451.012 740.782 450.407 737.156 450.407 726.477V713.381ZM456.653 664.421C463.1 664.421 468.339 667.443 471.361 671.876C474.585 676.51 475.592 682.957 475.592 687.994C475.592 695.449 472.57 701.091 469.145 703.71C466.525 705.322 463.906 706.732 460.28 707.135C458.063 707.538 455.041 707.538 452.019 707.538C451.213 707.538 450.81 706.732 450.609 705.322C450.407 702.904 450.81 671.675 451.012 669.458C451.213 666.839 451.817 665.63 452.22 665.227C453.228 664.824 455.646 664.421 456.653 664.421Z" fill="white"/>
<path d="M358.789 713.381C358.789 712.373 358.99 710.963 359.796 710.762C360.602 710.56 361.61 710.762 362.416 710.762C364.632 710.963 368.661 714.59 370.475 718.015C376.922 729.298 382.362 738.163 386.996 744.409C394.048 754.684 399.488 757.102 412.181 757.102C419.233 757.102 423.464 756.699 425.68 755.893C427.695 755.087 427.897 753.274 425.479 753.072C423.061 752.871 418.83 752.67 413.994 747.834C410.569 744.61 406.338 739.17 402.107 732.32C396.264 723.253 390.421 712.575 388.004 707.538C387.802 706.934 387.802 706.329 388.406 705.926C396.667 702.702 405.129 696.255 405.129 684.368C405.129 677.719 402.309 671.876 396.869 667.443C391.429 663.212 382.765 660.996 369.266 660.996C362.416 660.996 354.356 661.802 347.506 661.802C342.268 661.802 334.007 660.996 330.582 660.996C329.574 660.996 326.955 661.399 326.955 662.406C326.955 663.212 328.365 663.817 330.179 664.22C335.82 665.227 337.432 667.443 337.835 671.272C338.036 675.906 338.238 683.763 338.238 704.314C338.238 725.873 338.036 735.544 337.634 744.006C337.634 749.244 334.813 751.662 329.977 752.871C328.164 753.274 326.351 753.475 326.351 754.886C326.351 755.893 329.171 756.095 330.582 756.095C333.402 756.095 339.648 755.289 345.491 755.289C359.393 755.289 359.796 756.095 366.042 756.095C368.661 756.095 369.87 755.289 369.87 754.483C369.87 753.878 368.661 753.274 366.647 752.67C361.811 751.461 359.796 750.05 359.393 744.006C359.393 740.782 358.789 737.156 358.789 726.477V713.381ZM365.035 664.421C371.482 664.421 376.721 667.443 379.743 671.876C382.966 676.51 383.974 682.957 383.974 687.994C383.974 695.449 380.952 701.091 377.527 703.71C374.907 705.322 372.288 706.732 368.661 707.135C366.445 707.538 363.423 707.538 360.401 707.538C359.595 707.538 359.192 706.732 358.99 705.322C358.789 702.904 359.192 671.675 359.393 669.458C359.595 666.839 360.199 665.63 360.602 665.227C361.61 664.824 364.027 664.421 365.035 664.421Z" fill="white"/>
<path d="M277.414 662.406C277.414 663.011 279.228 664.018 280.235 664.22C284.668 665.227 287.69 666.638 288.294 671.07C288.697 673.689 288.899 691.42 288.899 705.725C288.899 717.813 288.899 731.917 288.496 740.581C288.294 748.841 286.884 751.461 280.437 752.871C278.623 753.274 277.213 753.878 277.213 754.684C277.213 755.289 278.623 756.296 280.638 756.296C286.078 756.296 293.13 755.289 299.174 755.289C305.42 755.289 314.084 756.095 318.718 756.095C320.531 756.095 322.143 755.692 322.143 754.483C322.143 753.878 321.337 753.274 319.524 752.871C313.882 751.662 311.465 750.05 311.062 745.618C310.659 741.991 310.457 727.484 310.457 705.12C310.457 698.874 310.457 679.935 310.86 674.092C311.062 667.846 311.867 665.832 317.912 664.421C320.128 664.018 321.337 663.011 321.337 662.205C321.337 661.399 320.128 660.996 317.912 660.996C313.278 660.996 301.793 661.802 298.368 661.802C293.331 661.802 284.668 660.996 280.84 660.996C278.623 660.996 277.414 661.601 277.414 662.406Z" fill="white"/>
<path d="M173.092 662.205C173.092 663.011 174.301 663.817 176.114 664.22C182.964 665.429 184.375 668.249 184.576 674.092C184.576 683.159 184.576 699.882 184.979 713.179C185.584 734.536 188.807 744.409 200.292 751.864C206.135 756.095 215.201 758.311 225.275 758.311C234.342 758.311 245.222 756.095 253.684 747.834C262.75 739.17 264.967 725.873 265.37 703.307C265.37 695.248 265.37 684.166 265.974 674.898C266.377 668.652 267.183 665.832 273.832 664.421C276.451 664.018 278.063 663.414 278.063 662.608C278.063 661.601 276.854 661.198 274.436 661.198C270.608 661.198 266.579 661.802 261.944 661.802C255.9 661.802 253.684 661.198 249.856 661.198C248.042 661.198 246.632 661.601 246.632 662.406C246.632 663.414 248.647 664.018 249.654 664.22C251.669 664.623 253.482 665.227 254.49 665.63C258.318 667.242 260.736 668.451 260.736 696.86C260.736 700.688 260.736 707.135 260.736 711.971C260.131 739.17 252.072 750.252 234.14 750.252C228.499 750.252 220.238 748.841 213.589 741.991C209.157 737.156 206.537 728.693 206.537 716V705.926C206.537 696.658 206.537 684.166 206.739 676.309C206.94 667.645 208.149 665.429 214.395 664.22C215.806 664.018 217.82 663.414 217.82 662.406C217.82 661.601 216.813 660.996 214.597 660.996C209.761 660.996 203.314 661.802 196.061 661.802C188.807 661.802 182.561 660.996 176.517 660.996C174.502 660.996 173.092 661.601 173.092 662.205Z" fill="white"/>
<path d="M126.629 660.18C111.317 660.18 97.2133 666.426 88.1467 676.097C78.4756 685.969 75.252 698.864 75.252 707.93C75.252 728.884 84.3186 739.16 90.9674 745.204C96.2059 750.04 102.452 752.86 109.101 756.487C111.518 757.092 119.175 760.92 123.809 763.539C142.143 774.419 157.254 783.888 174.38 792.552C195.334 803.029 216.288 809.275 237.04 809.275C257.591 809.275 271.091 802.828 278.545 796.582C279.956 795.574 280.762 794.567 280.762 793.761C280.762 792.754 279.553 793.156 278.142 793.962C271.091 797.589 263.031 799.604 254.166 799.604C235.832 799.604 218.303 794.768 200.17 785.903C179.82 776.434 162.09 764.949 151.008 756.89C149.598 755.883 149.195 755.278 149.195 755.077C149.195 754.674 149.397 754.271 150.605 753.868C155.24 751.853 160.679 748.226 165.515 743.794C171.761 737.548 179.82 727.474 179.82 709.139C179.82 696.043 172.97 681.134 162.493 672.47C155.642 666.627 144.158 660.18 126.629 660.18ZM126.428 663.202C135.293 663.202 142.949 669.045 148.188 677.708C153.628 687.178 155.844 700.073 155.844 716.393C155.844 727.071 151.613 749.032 140.934 754.472C137.912 755.883 135.494 757.293 131.465 757.293C127.234 757.293 118.57 755.48 109.705 745.003C104.467 738.354 98.8251 726.668 98.8251 708.736C98.8251 693.021 102.049 678.313 111.518 669.448C116.354 665.015 121.189 663.202 126.428 663.202Z" fill="white"/>
<path d="M46.7434 653.149C34.0501 653.149 25.588 656.978 19.5436 661.612C11.6858 667.455 6.44736 677.528 6.44736 687.2C6.44736 705.333 16.5214 716.213 36.2664 729.107C49.9671 737.771 58.4292 746.435 58.4292 757.315C58.4292 770.814 48.1537 781.089 33.2442 781.089C20.7524 781.089 7.25328 772.627 3.62664 757.919C2.82072 754.897 2.21628 753.688 1.20888 753.688C0.60444 753.688 0 754.494 0 757.919C0 762.553 2.21628 772.426 2.41776 775.448C2.82072 776.858 3.82812 778.268 5.037 779.074C11.4844 782.5 23.5732 784.917 34.2516 784.917C57.0189 784.917 79.1817 771.62 79.1817 748.046C79.1817 728.503 65.884 719.436 57.2203 713.19C50.5715 708.355 44.1241 704.325 37.6768 699.893C28.8116 693.647 24.782 687.2 24.782 678.536C24.782 662.417 37.8782 656.575 47.9522 656.575C52.9892 656.575 59.8396 658.791 64.0707 662.216C68.3017 665.641 70.1151 669.268 72.3313 674.506C72.9358 676.723 73.7417 677.73 74.1447 677.73C75.3535 677.73 75.7565 676.118 75.3535 673.7C74.9506 671.484 74.3461 665.037 74.3461 659.798C74.3461 659.194 73.9432 657.582 72.9358 657.179C68.7047 655.769 58.2277 653.149 46.7434 653.149Z" fill="white"/>
<path fill-rule="evenodd" clip-rule="evenodd" d="M614.834 254.417C614.834 355.579 555.792 442.951 470.287 483.953C444.659 506.625 410.205 521.168 373.381 526.684C369.17 521.432 364.969 516.463 360.781 511.765C404.9 502.091 433.657 466.824 433.657 422.597C433.657 380.583 400.758 347.128 347.492 313.672C270.727 263.878 231.561 221.864 231.561 151.841C231.561 114.495 251.927 75.5938 282.477 53.0308C289.185 47.9227 296.659 43.0682 305.062 38.7387C208.895 63.3471 137.802 150.58 137.802 254.417C137.802 315.22 162.179 370.329 201.692 410.506C201.587 410.844 201.489 411.191 201.396 411.546C189.265 412.324 178.635 418.024 171.782 425.138C130.902 379.996 106 320.115 106 254.417C106 113.906 219.906 0 360.417 0C500.928 0 614.834 113.906 614.834 254.417ZM583.032 254.417C583.032 319.524 555.082 378.103 510.526 418.811C513.015 408.767 514.339 398.092 514.339 386.807C514.339 313.222 465.19 278.1 431.513 254.035L431.475 254.007C430.625 253.4 429.786 252.801 428.957 252.207C412.797 240.534 396.942 230.076 381.203 219.694L381.201 219.693C371.765 213.469 362.37 207.273 352.975 200.857C318.509 176.738 302.843 151.841 302.843 118.386C302.843 58.0938 350.617 35.0333 389.209 33.647C498.555 47.7676 583.032 141.227 583.032 254.417Z" fill="white"/>
<path d="M234.254 437.855C234.006 437.684 233.758 437.512 233.51 437.34C233.501 437.485 233.491 437.629 233.48 437.773C233.738 437.799 233.996 437.827 234.254 437.855Z" fill="white"/>
<path d="M203.286 417.827C187.854 418.211 175.302 427.95 171.326 436.716C171.391 439.31 172.601 443.022 174.023 443.998C175.895 445.282 178.605 446.526 181.712 447.584C163.309 451.857 148.497 458.361 138.438 462.366C162.976 471.494 195.447 464.399 232.89 477.35C287.938 496.389 349.3 535.241 375.682 540C320.95 467.544 268.316 445.772 225.433 443.522C226.583 441.472 227.21 438.804 227.21 435.326C227.085 430.278 224.572 425.419 219.811 422.105C217.05 412.501 214.778 408.592 211.195 408.592C209.336 408.592 207.477 410.539 206.781 417.899C205.66 417.822 204.495 417.797 203.286 417.827Z" fill="white"/>
</svg>
