<svg id="Layer_2" data-name="Layer 2" xmlns="http://www.w3.org/2000/svg" viewBox="0 0 1600 726.35">
  <defs>
    <style>
      .cls-1 {
        fill: #fff;
        stroke-width: 0px;
      }
    </style>
  </defs>
  <g id="wordmark">
    <g id="reflections">
      <path class="cls-1" d="M134.26,181.66c-1.17,1.17-7.61,4.38-12.87,7.01-1.47.59-.88,2.63-.29,3.8,6.73,14.05,30.71,54.7,43.87,70.49,7.9,9.07,16.38,11.7,23.4,13.16,2.92.59,5.55,2.93,5.55,4.09,0,1.75-2.93,4.09-5.27,4.68-4.97,2.05-18.43,2.63-21.06,2.63-32.76,0-41.82-12-46.79-19.01-7.02-9.94-22.23-34.52-34.8-57.04-1.75-3.21-5.27-9.36-7.9-11.12-2.63-1.75-7.02-3.8-10.82-3.8-.88,0-2.93,1.17-3.22,2.63-.58,6.14-.29,45.92.59,57.91,1.17,12.87,2.63,15.21,15.79,18.72,4.98,1.47,7.32,3.52,7.32,5.85,0,3.22-5.55,4.68-9.94,4.68-9.66,0-26.04-1.75-37.44-1.75-12.87,0-27.2,1.17-30.42,1.17-8.77,0-9.94-2.33-9.94-4.97,0-1.46,3.51-3.8,7.32-4.98,13.74-4.09,16.08-8.48,16.67-16.97,2.33-28.66,1.75-50.6,1.75-78.68,0-24.57-.59-48.55-1.17-54.98-.58-5.27-2.92-11.41-16.97-14.62-4.09-.88-7.6-3.22-7.6-5.56,0-2.05,4.68-4.67,8.78-4.67h23.98c10.53,0,36.86-1.47,52.65-1.47,9.94,0,37.15.59,52.36,13.16,8.48,7.02,15.21,21.06,15.21,34.23,0,15.79-6.73,24.86-18.72,35.39ZM99.45,119.06c-6.73-7.02-14.04-9.66-21.06-9.66-1.17,0-7.9.88-9.94,2.05-1.17.88-2.92,4.39-3.21,6.14-.88,9.66-2.34,58.21-1.17,67.28.29,1.46,2.34,2.93,3.52,2.93,14.04,0,26.62-4.09,29.25-5.86,7.9-6.14,14.91-15.5,14.91-31,0-7.9-1.46-20.77-12.28-31.88Z"/>
      <path class="cls-1" d="M249.85,185.01c11.12,0,13.16-2.93,17.85-12.87,1.75-3.8,3.8-6.44,6.73-6.44,2.34,0,2.92,3.52,2.92,9.36,0,2.05-.58,9.06-.58,14.62,0,8.48.58,13.16.58,19.3s-2.34,7.61-4.67,7.61c-2.63,0-5.27-2.93-6.73-7.32-2.34-6.72-2.93-9.94-5.56-10.82-3.51-1.17-9.06-.88-22.23-.88-1.46,0-2.34,2.63-2.63,4.39-.87,5.85-.58,28.37,0,34.22.29,2.93,2.93,7.61,4.09,8.19,5.56,2.63,16.09,2.34,19.6,2.34,6.44,0,11.12-.29,14.92-1.46,9.36-2.34,18.72-12.87,24.27-21.06,1.75-2.92,2.93-5.26,5.55-5.26,3.52,0,4.1,4.97,4.1,7.9,0,9.65-6.15,25.16-7.9,28.08-1.17,2.05-5.55,4.39-6.72,4.39-9.07,0-36.57-1.46-76.05-1.46-9.07,0-28.37,1.46-35.1,1.46-7.6,0-11.41-2.05-11.41-4.97s5.56-5.56,9.07-6.44c12.28-2.93,14.92-5.27,16.08-17.55.88-10.24,1.17-23.69,1.17-42.41,0-13.16,0-31-.59-40.66-.29-5.85-1.75-8.78-11.4-11.7-3.52-1.17-8.48-3.22-8.48-6.73,0-1.46,1.75-4.09,8.19-4.09,5.26,0,19.89,1.17,34.51,1.17,42.71,0,62.3.29,69.03-1.17.88-.29,5.55.59,5.55,2.93,0,7.6,1.47,15.79,2.63,23.39,1.17,7.02-2.34,11.12-4.98,11.12-2.33,0-4.97-3.51-7.01-9.94-2.93-9.94-11.7-14.92-23.99-14.92-4.09,0-17.25-.29-22.23.29-.88,0-2.34,2.34-2.63,4.09-.58,4.09-.87,32.46-.29,39.19,0,.88,1.17,3.51,2.05,3.51,2.34.29,7.9.59,12.28.59Z"/>
      <path class="cls-1" d="M329.22,124.76c7.9,0,21.35,1.17,31.59,1.17,38.03,0,71.37.29,78.1-1.17,1.17-.29,3.21,1.46,3.21,3.8,0,5.55.88,20.18.88,25.74,0,6.14-4.09,8.78-6.14,8.78-2.63,0-3.22-2.34-6.14-8.78-3.81-8.78-8.48-14.62-12.28-15.8-3.52-1.17-16.97-1.46-34.52-1.46-.87,0-3.21,2.34-3.21,4.39,0,11.7-1.17,35.1-.29,42.12.29,1.75,1.46,3.51,2.92,3.51,2.93.29,10.82-.59,20.19-.59,8.48,0,9.65-5.26,12.87-11.99,1.46-2.93,3.21-6.14,5.85-6.14,4.09,0,4.67,6.73,4.67,7.9-.29,4.98-.58,8.78-.58,14.62,0,7.02.29,13.16.87,19.31.29,4.68-2.34,8.48-5.85,8.48-1.46,0-4.39-3.8-5.55-7.02-2.93-8.48-4.68-9.65-9.07-10.82-3.21-.87-13.45-.87-24.27-.87-.88,0-2.05,2.63-2.05,3.21-.59,4.98-.29,19.6,0,30.42.29,9.94,1.75,11.99,12.58,14.62,4.09.87,8.78,2.92,8.78,5.85,0,4.09-5.86,4.97-9.66,4.97-3.51,0-25.45-1.17-35.1-1.17-8.19,0-21.35,1.46-29.84,1.46-6.14,0-8.77-2.05-8.77-4.97,0-2.63,3.51-4.68,9.06-5.86,9.94-2.05,11.41-5.26,12.58-13.16.59-4.39,1.17-19.89,1.17-31.88,0-39.78-.29-52.36-1.17-58.79-.29-2.92-1.46-6.43-10.82-9.06-7.31-2.05-9.36-3.8-9.36-7.02,0-1.46,2.93-3.8,9.36-3.8Z"/>
      <path class="cls-1" d="M467.54,125.05c3.8,0,14.33.87,26.91.87,10.24,0,29.54-1.17,35.69-1.46,2.34,0,7.01,1.46,7.01,3.8,0,1.75-.87,4.98-7.9,6.14-7.02,1.17-10.82,6.14-11.4,11.12-.88,9.07-2.05,51.77-2.05,70.78,0,5.26.29,15.21.87,20.77.59,5.26,5.55,8.48,8.48,9.07,5.26,1.17,12.28,1.46,16.97,1.46,6.73,0,12.58-1.46,18.72-7.6,3.51-4.09,7.01-7.02,12.28-13.75,4.39-5.85,6.44-8.78,9.07-8.78,3.21,0,3.51,5.27,1.17,10.82-2.05,4.68-7.02,17.85-8.78,26.91-.29,1.47-2.92,3.52-4.39,3.8-2.63.59-10.24.59-19.89.59-19.89,0-32.76-1.75-54.7-1.75-12.58,0-27.2,1.46-33.05,1.46-6.44,0-9.07-2.05-9.07-5.26,0-1.46,2.34-4.39,9.36-5.85,9.65-1.76,11.7-4.68,13.46-12.28,1.17-5.56,1.46-26.33,1.46-44.17,0-10.82.59-31.88,0-43-.59-9.06-2.05-11.4-10.82-13.45-6.44-1.46-8.48-3.22-8.48-6.14,0-2.63,2.63-4.09,9.07-4.09Z"/>
      <path class="cls-1" d="M668.4,185.01c11.12,0,13.16-2.93,17.85-12.87,1.75-3.8,3.8-6.44,6.73-6.44,2.34,0,2.92,3.52,2.92,9.36,0,2.05-.58,9.06-.58,14.62,0,8.48.58,13.16.58,19.3s-2.34,7.61-4.67,7.61c-2.63,0-5.27-2.93-6.73-7.32-2.34-6.72-2.93-9.94-5.56-10.82-3.51-1.17-9.06-.88-22.23-.88-1.46,0-2.34,2.63-2.63,4.39-.87,5.85-.58,28.37,0,34.22.29,2.93,2.93,7.61,4.09,8.19,5.56,2.63,16.09,2.34,19.6,2.34,6.44,0,11.12-.29,14.92-1.46,9.36-2.34,18.72-12.87,24.27-21.06,1.75-2.92,2.93-5.26,5.55-5.26,3.52,0,4.1,4.97,4.1,7.9,0,9.65-6.15,25.16-7.9,28.08-1.17,2.05-5.55,4.39-6.72,4.39-9.07,0-36.57-1.46-76.05-1.46-9.07,0-28.37,1.46-35.1,1.46-7.6,0-11.41-2.05-11.41-4.97s5.56-5.56,9.07-6.44c12.28-2.93,14.92-5.27,16.08-17.55.88-10.24,1.17-23.69,1.17-42.41,0-13.16,0-31-.59-40.66-.29-5.85-1.75-8.78-11.4-11.7-3.52-1.17-8.48-3.22-8.48-6.73,0-1.46,1.75-4.09,8.19-4.09,5.26,0,19.89,1.17,34.51,1.17,42.71,0,62.3.29,69.03-1.17.88-.29,5.55.59,5.55,2.93,0,7.6,1.47,15.79,2.63,23.39,1.17,7.02-2.34,11.12-4.98,11.12-2.33,0-4.97-3.51-7.01-9.94-2.93-9.94-11.7-14.92-23.99-14.92-4.09,0-17.25-.29-22.23.29-.88,0-2.34,2.34-2.63,4.09-.58,4.09-.87,32.46-.29,39.19,0,.88,1.17,3.51,2.05,3.51,2.34.29,7.9.59,12.28.59Z"/>
      <path class="cls-1" d="M766.69,139.39c12.87-10.53,33.05-18.72,63.76-18.72,14.62,0,36.86,5.55,42.12,6.44,2.05.29,4.68,4.68,4.68,6.73,0,7.6,2.34,20.47,2.34,25.16,0,2.92-3.81,8.19-6.73,8.19-1.17,0-3.22-2.05-3.8-3.81-2.34-6.72-5.56-12.58-9.36-16.96-7.01-8.78-20.47-15.21-32.76-15.21-11.12,0-20.77,6.44-26.32,11.4-5.86,5.56-14.92,21.65-14.92,44.17,0,21.35,6.73,38.61,15.2,47.68,9.07,9.07,20.19,16.09,31.59,16.09s21.65-3.52,29.25-15.8c2.34-3.51,5.27-7.31,7.9-11.7,2.05-3.52,5.86-6.73,8.78-6.73,1.46,0,3.8,3.8,3.22,5.85-2.63,8.19-6.14,21.94-8.19,28.66-.88,2.93-5.27,4.09-7.32,4.98-11.4,4.09-24.86,7.31-42.99,7.31-25.16,0-47.97-7.6-62.89-21.64-13.74-13.16-19.6-30.13-19.6-51.19s10.82-38.9,26.04-50.89Z"/>
      <path class="cls-1" d="M998.25,125.93c28.08,0,31.58-1.46,39.49-4.97,1.17-.59,4.39.87,4.09,4.68-.59,8.77.87,28.08.87,31.3,0,4.09-4.39,7.31-6.44,7.31s-3.51-1.46-5.85-7.6c-4.09-10.82-8.19-14.92-14.04-16.38-5.55-1.47-21.65-1.76-25.16-.29-.88.29-1.75,1.17-2.05,3.21-.29,4.09-.59,37.44-.59,66.98,0,15.79,0,20.47.88,26.03.87,6.14,2.92,9.07,13.45,11.7,6.14,1.46,8.48,3.21,8.48,6.14,0,4.09-5.55,4.97-9.36,4.97-12.28,0-19.01-1.17-33.05-1.17-7.61,0-28.38,1.75-35.1,1.75-5.56,0-9.07-1.75-9.07-4.97,0-2.63,3.8-4.98,7.6-5.86,14.33-3.8,15.8-8.77,16.38-21.35,1.17-21.65,2.34-48.56,2.34-82.19,0-2.05-.58-4.68-2.05-4.97-4.39-1.47-20.18-1.76-26.03,0-4.39,1.46-8.19,4.67-13.75,16.08-3.21,6.73-5.26,7.9-6.14,7.9-3.8,0-5.85-4.09-5.85-7.31,0-.88,3.22-26.62,4.39-33.34,0-3.52,3.8-3.81,4.39-3.81,2.63,0,5.55,2.93,7.31,3.81,4.98,2.33,10.53,2.33,32.77,2.33h52.06Z"/>
      <path class="cls-1" d="M1065.69,125.05c2.63,0,20.77.87,29.25.87,9.06,0,27.19-1.17,35.1-1.46,2.63,0,4.97,1.17,4.97,3.22,0,3.51-4.39,6.14-7.9,6.72-12.28,2.34-11.12,4.68-12.58,14.92-1.17,8.48-1.17,32.18-1.17,51.19,0,7.31,0,19.3.29,25.44.58,16.97.29,19.6,12.86,22.23,4.98,1.17,7.61,3.8,7.61,6.44,0,2.92-3.52,4.09-8.48,4.09-11.99,0-16.38-.88-26.62-.88-8.78,0-32.18,2.05-37.73,2.05-4.09,0-8.48-1.17-8.48-3.8,0-2.93,3.21-6.14,7.6-7.32,12.28-3.51,13.75-7.31,14.92-20.18.59-5.26.59-18.43.59-28.37,0-30.13.29-44.46-.88-52.36-.59-4.68-1.75-10.24-9.36-11.99-5.56-1.47-9.07-4.68-9.07-8.19,0-2.63,4.09-2.63,9.07-2.63Z"/>
      <path class="cls-1" d="M1302.26,188.23c0,25.45-8.48,43-25.73,57.33-17.85,14.92-43.29,17.55-51.19,17.55-63.47,0-81.31-44.45-81.31-71.36,0-20.77,9.07-39.78,23.4-51.77,16.97-14.05,37.44-19.31,55.86-19.31,49.44,0,78.97,32.76,78.97,67.56ZM1198.42,141.43c-8.19,9.07-11.7,26.32-11.7,44.75,0,38.03,21.64,66.11,41.83,66.11,3.21,0,12.28-.88,20.77-10.24,8.19-9.36,10.82-29.25,10.82-50.6,0-16.67-12.29-59.96-40.95-59.96-5.26,0-13.45,1.46-20.77,9.94Z"/>
      <path class="cls-1" d="M1315.21,124.17c2.63,0,34.22,1.75,45.33,1.75,2.05,0,4.68,3.22,5.55,4.39,2.34,3.52,10.82,11.41,18.43,20.19,8.19,9.06,40.95,42.99,52.35,53.23,1.76,1.46,2.34.59,2.34-.88,1.17-14.04.59-41.24-1.46-51.77-1.46-8.19-5.85-13.74-16.97-16.38-6.44-1.46-8.19-2.63-8.19-5.26,0-3.22,5.27-4.39,8.48-4.39,9.65,0,18.43.87,25.45.87,5.85,0,12.87-1.17,20.18-1.17,4.68,0,7.6.88,7.6,4.09s-2.92,3.8-9.06,6.44c-8.48,3.51-10.24,6.73-11.41,16.38-1.46,13.46-2.92,62.3-2.92,68.74,0,7.02,1.46,26.91,1.46,28.96,0,11.12-1.46,14.33-5.55,14.33-3.52,0-13.46-4.09-17.85-9.06-6.44-7.32-15.2-17.85-32.46-36.57-13.46-14.04-31.59-34.22-46.8-49.43-.58-.59-2.34-.59-2.34,1.17,0,11.12-.87,44.46,0,62.3.29,6.44,3.22,12.87,15.51,16.67,3.21,1.17,6.44,2.63,6.44,4.98,0,3.21-2.93,4.68-8.78,4.68-.87,0-8.19-.59-16.38-.59-7.02,0-19.31,1.46-28.37,1.46-5.27,0-8.48-2.05-8.48-4.67,0-2.05,2.05-3.81,7.6-5.27,12.87-3.21,15.51-10.24,16.67-20.47.88-8.48,3.22-46.8,3.22-57.62,0-6.73,0-18.43-.29-19.89-.29-2.05-6.14-11.99-10.24-13.74-2.63-1.17-7.32-2.63-11.12-3.8-4.98-1.47-6.73-2.93-6.73-5.86,0-2.05,2.63-3.8,8.78-3.8Z"/>
      <path class="cls-1" d="M1586.84,100.63c.87.29,3.51,4.39,3.8,6.15,0,3.21,2.93,28.08,2.93,29.24,0,4.39-1.17,7.02-2.63,7.02-2.63,0-7.61-2.63-9.07-7.02-2.92-9.36-8.19-17.55-11.99-20.77-7.6-6.72-15.21-9.06-24.57-9.06-11.12,0-28.08,9.94-28.08,28.66,0,15.51,12,25.16,38.61,41.24,42.41,25.45,44.16,45.63,44.16,59.67,0,15.21-9.06,33.34-26.62,43.59-9.94,6.14-27.2,10.52-41.53,10.52-21.06,0-30.42-2.63-43.87-7.6-2.05-.87-7.9-6.73-8.19-8.19-2.63-10.24-5.26-22.52-5.26-33.05,0-2.05,3.51-6.44,4.97-6.44,2.63,0,7.32,6.73,12,15.79,9.36,18.72,25.16,28.67,41.53,28.67,10.53,0,28.08-8.78,28.08-26.33,0-11.99-6.14-23.11-31-39.78-32.46-21.35-47.68-36.85-47.68-63.47,0-18.13,9.36-32.46,18.43-39.49,10.24-8.19,23.99-14.04,48.26-14.04,12.87,0,28.66,3.21,37.73,4.67Z"/>
    </g>
    <g id="river">
      <path class="cls-1" d="M537.67,531.49c-1.2,1.2-7.8,4.49-13.2,7.19-1.51.6-.9,2.7-.3,3.9,6.9,14.4,31.49,56.09,44.99,72.28,8.1,9.3,16.79,12,24,13.5,2.99.6,5.7,3,5.7,4.2,0,1.8-3,4.2-5.4,4.8-5.09,2.1-18.89,2.7-21.59,2.7-33.6,0-42.89-12.3-47.99-19.5-7.2-10.2-22.79-35.39-35.69-58.49-1.8-3.3-5.4-9.59-8.1-11.4-2.7-1.8-7.2-3.9-11.1-3.9-.9,0-3,1.2-3.3,2.7-.59,6.3-.3,47.09.6,59.38,1.2,13.2,2.7,15.6,16.19,19.19,5.1,1.51,7.5,3.6,7.5,6,0,3.3-5.7,4.8-10.2,4.8-9.9,0-26.7-1.8-38.39-1.8-13.2,0-27.89,1.2-31.2,1.2-8.99,0-10.2-2.39-10.2-5.09,0-1.5,3.6-3.9,7.5-5.1,14.09-4.2,16.49-8.7,17.1-17.4,2.39-29.39,1.8-51.88,1.8-80.68,0-25.19-.6-49.78-1.2-56.38-.59-5.4-2.99-11.7-17.4-15-4.2-.9-7.79-3.3-7.79-5.7,0-2.1,4.8-4.79,9-4.79h24.59c10.8,0,37.8-1.51,53.99-1.51,10.2,0,38.09.6,53.69,13.5,8.7,7.2,15.6,21.59,15.6,35.09,0,16.19-6.9,25.49-19.19,36.29ZM501.97,467.3c-6.89-7.2-14.39-9.9-21.59-9.9-1.2,0-8.1.9-10.2,2.1-1.2.9-2.99,4.5-3.3,6.3-.9,9.9-2.4,59.68-1.2,68.98.3,1.5,2.4,3,3.6,3,14.39,0,27.29-4.2,29.99-6,8.1-6.3,15.29-15.89,15.29-31.79,0-8.1-1.5-21.29-12.6-32.69Z"/>
      <path class="cls-1" d="M606.79,474.68c2.69,0,21.29.9,29.99.9,9.29,0,27.88-1.2,35.99-1.5,2.69,0,5.09,1.2,5.09,3.3,0,3.6-4.5,6.3-8.1,6.89-12.6,2.4-11.4,4.8-12.9,15.3-1.2,8.7-1.2,32.99-1.2,52.49,0,7.49,0,19.79.3,26.09.59,17.4.29,20.1,13.19,22.8,5.1,1.2,7.8,3.9,7.8,6.6,0,2.99-3.6,4.2-8.7,4.2-12.29,0-16.79-.9-27.29-.9-9,0-32.99,2.1-38.69,2.1-4.2,0-8.7-1.2-8.7-3.9,0-3,3.3-6.3,7.79-7.5,12.6-3.6,14.1-7.49,15.3-20.69.6-5.39.6-18.89.6-29.09,0-30.9.3-45.59-.9-53.69-.6-4.8-1.8-10.5-9.59-12.29-5.7-1.51-9.3-4.8-9.3-8.4,0-2.7,4.2-2.7,9.3-2.7Z"/>
      <path class="cls-1" d="M696.26,473.78c6.3,0,24,1.8,34.79,1.8,9.6,0,19.8-.9,26.99-.9,6.3,0,9,2.1,9,3.9,0,3.3-2.1,4.5-8.1,6.6s-6.6,5.7-3.9,12.9c3.9,9.89,8.4,23.09,15.59,38.39,5.4,10.8,7.2,15.89,12.3,23.69.59.9,1.5.9,2.4-.6,3.6-6.3,16.79-38.39,22.49-54.28,4.8-14.1,5.7-17.7-4.8-20.4-6-1.5-8.99-3.3-8.99-6.3,0-2.7,2.99-3.9,9.29-3.9,9,0,11.4.9,19.19.9,9.9,0,17.4-1.2,23.69-1.2,5.7,0,8.7.9,8.7,4.2,0,2.1-2.4,3.9-9,5.7-9.59,2.7-14.69,5.7-24.29,23.69-6.9,13.5-15,33.59-23.1,51.89-14.09,31.79-18.89,43.78-20.09,47.69-1.5,3.6-9.9,8.99-12.6,8.99-2.4,0-3.9-3.6-5.7-7.79-.9-2.1-5.09-15.9-11.09-29.69-10.5-23.39-26.7-59.98-36-78.88-3.3-7.2-9.59-14.1-17.99-16.2-3.9-.9-7.79-2.69-7.79-6,0-2.99,4.2-4.2,8.99-4.2Z"/>
      <path class="cls-1" d="M939.72,536.16c11.4,0,13.5-3,18.3-13.2,1.8-3.9,3.9-6.6,6.9-6.6,2.4,0,2.99,3.6,2.99,9.6,0,2.1-.59,9.29-.59,15,0,8.7.59,13.49.59,19.79s-2.4,7.8-4.79,7.8c-2.7,0-5.4-3-6.9-7.5-2.4-6.89-3-10.2-5.7-11.09-3.6-1.2-9.29-.9-22.79-.9-1.5,0-2.4,2.7-2.7,4.5-.9,6-.59,29.09,0,35.09.3,3,3,7.8,4.2,8.4,5.7,2.7,16.5,2.4,20.1,2.4,6.6,0,11.4-.3,15.3-1.5,9.59-2.4,19.19-13.2,24.89-21.59,1.8-2.99,3-5.39,5.7-5.39,3.6,0,4.21,5.09,4.21,8.1,0,9.89-6.31,25.79-8.1,28.79-1.2,2.1-5.7,4.5-6.89,4.5-9.3,0-37.49-1.5-77.98-1.5-9.3,0-29.09,1.5-35.99,1.5-7.79,0-11.7-2.1-11.7-5.09s5.7-5.7,9.3-6.6c12.6-3,15.3-5.4,16.49-18,.9-10.5,1.2-24.29,1.2-43.48,0-13.5,0-31.79-.6-41.69-.3-6-1.8-9-11.69-11.99-3.6-1.2-8.7-3.3-8.7-6.9,0-1.5,1.8-4.2,8.4-4.2,5.39,0,20.39,1.2,35.39,1.2,43.79,0,63.88.3,70.78-1.2.9-.3,5.7.6,5.7,3,0,7.79,1.51,16.19,2.7,23.99,1.2,7.2-2.4,11.4-5.1,11.4-2.39,0-5.09-3.6-7.19-10.2-3-10.2-12-15.3-24.6-15.3-4.2,0-17.69-.3-22.79.3-.9,0-2.4,2.4-2.7,4.2-.59,4.2-.9,33.29-.3,40.19,0,.9,1.2,3.6,2.1,3.6,2.4.3,8.1.6,12.6.6Z"/>
      <path class="cls-1" d="M1138.82,531.49c-1.2,1.2-7.8,4.49-13.2,7.19-1.51.6-.9,2.7-.3,3.9,6.9,14.4,31.49,56.09,44.99,72.28,8.1,9.3,16.79,12,24,13.5,2.99.6,5.7,3,5.7,4.2,0,1.8-3,4.2-5.4,4.8-5.09,2.1-18.89,2.7-21.59,2.7-33.59,0-42.88-12.3-47.98-19.5-7.2-10.2-22.79-35.39-35.69-58.49-1.8-3.3-5.4-9.59-8.1-11.4-2.7-1.8-7.2-3.9-11.1-3.9-.9,0-3,1.2-3.3,2.7-.59,6.3-.3,47.09.6,59.38,1.2,13.2,2.7,15.6,16.19,19.19,5.1,1.51,7.5,3.6,7.5,6,0,3.3-5.7,4.8-10.2,4.8-9.9,0-26.7-1.8-38.39-1.8-13.2,0-27.89,1.2-31.2,1.2-8.99,0-10.2-2.39-10.2-5.09,0-1.5,3.6-3.9,7.5-5.1,14.09-4.2,16.49-8.7,17.1-17.4,2.39-29.39,1.8-51.88,1.8-80.68,0-25.19-.6-49.78-1.2-56.38-.59-5.4-2.99-11.7-17.4-15-4.2-.9-7.79-3.3-7.79-5.7,0-2.1,4.8-4.79,9-4.79h24.59c10.8,0,37.8-1.51,53.99-1.51,10.2,0,38.09.6,53.69,13.5,8.7,7.2,15.6,21.59,15.6,35.09,0,16.19-6.9,25.49-19.19,36.29ZM1098.16,467.3c-6.9-7.2-14.39-9.9-21.59-9.9-1.2,0-8.1.9-10.2,2.1-1.2.9-2.99,4.5-3.3,6.3-.9,9.9-2.4,59.68-1.2,68.98.3,1.5,2.4,3,3.6,3,14.39,0,27.29-4.2,29.99-6,8.1-6.3,15.29-15.89,15.29-31.79,0-8.1-1.5-21.29-12.6-32.69Z"/>
    </g>
    <g id="of_the" data-name="of the">
      <path class="cls-1" d="M739.13,361.56c0,14.35-9.83,26.43-18.78,30.98-2.7,1.29-5.51,2.27-8.96,2.27-4.11,0-9.4-4.21-9.4-11.55,0-6.58,4.54-20.19,13.6-28.06,3.56-3.12,8.2-5.71,13.38-5.71,6.58,0,10.15,6.91,10.15,12.08ZM720.36,357.13c-5.08,5.84-10.8,19.1-10.8,29.89,0,2.49,1.31,4.75,4.11,4.75,1.73,0,4.11-1.08,7.12-4.85,4.64-5.72,11.34-19.75,11.34-29.47,0-3.02-1.08-5.18-3.99-5.18-2.48,0-4.97,1.51-7.77,4.85Z"/>
      <path class="cls-1" d="M774.2,350.23c.54,0,.86,1.08.86,1.41,0,.65-1.18,2.38-2.59,2.38-2.38,0-6.36.32-9.5.32-.32,0-.65.32-.86.86-3.46,10.9-10.25,35.51-13.71,47.91-3.12,10.48-7.88,12.95-10.68,15.12-3.99,2.8-10.04,4.74-12.08,4.74-4.97,0-7.67-2.27-7.55-4.85,0-1.41,3.12-4.97,4.63-4.97.44-.11,1.31.21,1.73.76,2.05,2.69,4.43,4.21,7.02,4.21,2.91,0,6.37-1.73,9.61-14.25,3.45-12.84,9.27-34.21,13.7-48.67.11-.21,0-.86-.65-.86l-6.58.21c-.76,0-1.08-.65-1.08-1.08,0-1.29,1.19-2.59,2.05-2.59,1.94,0,5.61-.1,7.12-.1.32,0,.65-.55.76-.76,3.56-10.37,9.82-24.83,18.02-30.33,4.32-3.02,7.67-3.99,10.58-3.99,5.5,0,8.1,3.46,7.99,6.81-.11,4.63-3.56,7.33-5.29,7.33-.54,0-.86-.32-.86-1.07,0-.55.1-1.63.1-2.28.11-3.98-1.62-7.65-4.53-7.65-3.24,0-6.05,1.72-10.25,9.17-2.8,5.07-6.15,14.46-8.2,21.48-.11.42.32,1.07.44,1.07l9.82-.32Z"/>
      <path class="cls-1" d="M812.11,340.84c-.32,1.29-2.27,7.67-2.59,8.85-.11.32.11.97.54.97,2.27,0,7.23.21,10.04.32.21,0,.42.44.42.86.11.65-.97,2.27-2.15,2.38-1.62.11-7.99.44-10.04.44-.32,0-.75.32-.97.86-1.51,3.46-7.23,18.46-10.35,27.3-.65,1.84-.54,3.02.54,3.02,2.16,0,8.52-4.43,10.79-6.91.98-.86,2.38-1.62,2.38-.32,0,.86-.32,1.62-.97,2.59-4.32,6.05-15.11,13.38-20.17,13.38-1.08,0-2.81-1.62-2.81-2.48,0-.54.11-1.41.54-2.7.44-1.08,7.89-21.48,12.52-33.45.32-.76.11-1.29-.21-1.29-1.51-.11-4.21-.22-5.72-.32-1.07-.11-1.72-.55-1.72-.97,0-.65,1.39-2.16,2.15-2.27,2.16-.22,5.82-.32,6.58-.32.54,0,1.08-.76,1.19-.97,1.62-3.25,3.24-6.26,4.42-8.2,1.41-2.28,2.81-3.14,5.08-3.14.97,0,1.07.54.54,2.38Z"/>
      <path class="cls-1" d="M851.44,386.7c-2.49,2.7-4.97,4.43-7.02,5.84-2.48,1.62-4.1,2.59-5.39,2.59-1.63,0-3.35-.76-3.99-1.41-.87-.86-.97-1.41-.97-1.94,0-.65,1.94-3.46,2.69-3.88.32-.22.32-.32.65-.22,1.73.65,3.57,2.05,5.84,2.05.75,0,1.39-.32,2.15-1.62,3.24-4.53,9.4-23.63,9.4-30,0-2.8-1.19-4.32-3.14-4.32-3.77,0-8.2,4.75-16.61,15.77-3.14,4.31-11.23,18.02-13.71,22.99-.75,1.29-2.59,2.27-3.01,2.27-1.73,0-3.14-2.05-2.81-3.35,7.44-22.89,14.78-47.05,20.07-64.54.86-2.59.97-4.1-2.91-4.97-1.73-.42-2.27-1.41-2.27-1.73,0-.42.86-.97,1.94-1.29,3.24-.86,11.55-3.24,13.17-3.24.44,0,.97,1.41.76,2.27-5.29,16.74-16.41,49.43-16.95,51.37-.32,1.08.44,1.19.86.65,4.54-5.82,10.58-12.73,15.22-16.19,4.85-3.56,7.34-4.31,10.58-4.31,5.29,0,6.91,5.07,6.91,7.12,0,10.9-7.23,25.36-11.44,30.1Z"/>
      <path class="cls-1" d="M902,356.06c0,3.34-3.12,7.65-8.3,10.57-3.88,2.16-11.23,4.54-15.76,5.84-.76.21-1.52.86-1.73,1.62-.76,2.05-1.41,5.39-1.41,8.41,0,5.4,2.81,6.47,5.72,6.47,3.67,0,7.77-2.48,10.58-5.07,1.18-1.18,2.04-1.62,2.69-1.62.32,0,.65.44.65.65,0,.65-.65,1.83-1.29,2.7-2.69,3.12-9.82,8.95-17.8,8.95-2.6,0-8.31-4.21-8.31-11.21,0-7.67,4.64-18.24,11.87-25.8,5.61-5.72,11.44-8.09,15.21-8.09,6.37,0,7.88,4.1,7.88,6.58ZM878.15,368.79c-.11.21-.11,1.08.32.97,6.8-2.38,17.05-6.91,17.05-15.01,0-1.39-.44-2.69-1.83-2.69-5.51,0-13.71,10.9-15.54,16.73Z"/>
    </g>
    <g id="top_ornament" data-name="top ornament">
      <path class="cls-1" d="M591.79,37.81c-122.16-.12-233.21.79-357.78-.59-19.74,10.14-31.47-9.35-14.66-13.49,36.15,8.39,83.25,2.06,120.82,5.28,100.64,0,205.55-1.55,306.75-1.17,16.87-6.33,51.31,9.33,15.84,11.74-20.1-3.83-51.68,1.16-70.97-1.76ZM704.4,24.9c5.28-1.76,9.97-4.69,15.25-6.45,5.28-1.76,8.21,0,13.49-1.17,5.28-1.17,24.05,0,29.33,2.93,5.28,2.93,28.74,4.11,36.36,7.04,7.62,2.93,22.29,5.28,28.74,7.04,6.45,1.76,16.42,4.69,22.29,4.69s8.21-.59,14.66-.59,12.9,0,15.84-1.17c2.93-1.17,11.14,0,14.66-2.93,3.52-2.93,7.62-3.52,11.73-7.62,4.11-4.11,9.97-.59,7.04,2.93s-9.38,10.56-15.84,14.08c-6.45,3.52-11.73,6.45-18.18,7.62-6.45,1.17-21.12,1.76-25.22,1.17-4.11-.59-15.84-.59-25.81-3.52-9.97-2.93-16.42-5.28-21.11-6.45-4.69-1.17-19.36-1.76-25.22-4.11s-17.01-5.87-24.05-5.87-9.97-1.17-18.77-1.76c-8.8-.59-16.42-.59-21.7,1.17-5.28,1.76-18.77,4.11-22.29,7.04-3.52,2.93-9.38,3.52-7.62-1.76,1.76-5.28,11.14-10.56,16.42-12.32ZM733.14,42.5c5.87-.59,12.9-2.93,21.11,0,8.21,2.93,15.25,5.87,18.77,5.87s6.45,2.93,8.21,2.93,5.28,1.76,8.8,2.93c3.52,1.17,11.73,4.11,15.25,4.11s15.84,2.35,19.94,2.93c4.11.59,10.56,1.76,14.08,0s10.56-2.35,12.9-4.11c2.35-1.76,2.93,1.76,1.76,3.52-1.17,1.76-8.8,5.28-12.32,6.45-3.52,1.17-10.56,2.93-15.25,2.93s-14.08-1.17-18.18-2.93c-4.11-1.76-17.6-4.69-19.35-4.69s-10.56-1.76-13.49-2.93-11.14-5.28-14.08-5.28-5.87-2.93-9.38-4.11c-3.52-1.17-8.21-1.76-12.9-1.17-4.69.59-8.8-1.17-11.73.59-2.93,1.76-5.28,2.35-7.62,2.93-2.35.59-5.28-1.17-2.35-2.93,2.93-1.76,9.97-6.45,15.84-7.04ZM768.33,1.44c5.87-.59,12.9-2.93,21.11,0,8.21,2.93,15.25,5.87,18.77,5.87s6.45,2.93,8.21,2.93,5.28,1.76,8.8,2.93c3.52,1.17,11.73,4.11,15.25,4.11s15.84,2.35,19.94,2.93c4.11.59,10.56,1.76,14.08,0,3.52-1.76,10.56-2.35,12.9-4.11,2.35-1.76,2.93,1.76,1.76,3.52-1.17,1.76-8.8,5.28-12.32,6.45-3.52,1.17-10.56,2.93-15.25,2.93s-14.08-1.17-18.18-2.93c-4.11-1.76-17.6-4.69-19.36-4.69s-10.56-1.76-13.49-2.93c-2.93-1.17-11.14-5.28-14.08-5.28s-5.87-2.93-9.38-4.11c-3.52-1.17-8.21-1.76-12.9-1.17-4.69.59-8.8-1.17-11.73.59-2.93,1.76-5.28,2.35-7.62,2.93-2.35.59-5.28-1.17-2.35-2.93,2.93-1.76,9.97-6.45,15.84-7.04ZM957.78,37.81c-11.03,3.48-58.64.71-24.05-10.56,70.82.71,147.66,1.12,218.77,1.18,65.76,1.36,136.59-.95,201.76,0,7.49.18,29.94-9.96,34.02,1.17.89,14.33-16.52,8.09-22.29,7.62-49.43,1.27-66-1.67-107.92,1.17-100.2-.62-200.47-.19-300.3-.58Z"/>
    </g>
    <g id="bot_ornament" data-name="bot ornament">
      <path class="cls-1" d="M972.44,694.68c-16.26-4.43-39.48,8.17-51.03-4.1,5-10.44,20.51-7.11,31.67-6.46,80.43.54,162.17-.54,242.82,1.17,52.32,1.38,107.03-2.53,158.36-.58,10.67-3.09,50.71-10.37,27.57,12.32-63.24-8.94-106.95-.13-165.4-2.94-81.49,1.81-162.77-1.5-243.99.59ZM912.03,693.5c1.76,5.28-4.11,4.69-7.62,1.76-3.52-2.93-17.01-5.28-22.29-7.04-5.28-1.76-12.9-1.76-21.7-1.17-8.8.59-11.73,1.76-18.77,1.76s-18.18,3.52-24.05,5.87c-5.87,2.35-20.53,2.93-25.22,4.11-4.69,1.17-11.14,3.52-21.11,6.45-9.97,2.93-21.7,2.93-25.81,3.52s-18.77,0-25.22-1.17c-6.45-1.17-11.73-4.11-18.18-7.63-6.45-3.52-12.9-10.56-15.84-14.08-2.93-3.52,2.93-7.04,7.04-2.93s8.21,4.69,11.73,7.63c3.52,2.93,11.73,1.76,14.66,2.93,2.93,1.17,9.38,1.17,15.84,1.17s8.8.59,14.66.59,15.84-2.93,22.29-4.69c6.45-1.76,21.12-4.11,28.74-7.04,7.63-2.93,31.09-4.11,36.36-7.04,5.28-2.93,24.05-4.11,29.33-2.93,5.28,1.17,8.21-.59,13.49,1.17,5.28,1.76,9.97,4.69,15.25,6.45,5.28,1.76,14.66,7.04,16.42,12.32ZM882.71,705.82c2.93,1.76,0,3.52-2.35,2.93s-4.69-1.17-7.62-2.93c-2.93-1.76-7.04,0-11.73-.59-4.69-.59-9.38,0-12.9,1.17-3.52,1.17-6.45,4.11-9.38,4.11s-11.14,4.11-14.08,5.28-11.73,2.93-13.49,2.93-15.25,2.93-19.35,4.69-13.49,2.93-18.18,2.93-11.73-1.76-15.25-2.93c-3.52-1.17-11.14-4.69-12.32-6.45-1.17-1.76-.59-5.28,1.76-3.52,2.35,1.76,9.38,2.35,12.9,4.11,3.52,1.76,9.97.59,14.08,0,4.11-.59,16.42-2.93,19.94-2.93s11.73-2.93,15.25-4.11c3.52-1.17,7.04-2.93,8.8-2.93s4.69-2.93,8.21-2.93,10.56-2.93,18.77-5.87c8.21-2.93,15.25-.59,21.11,0,5.87.59,12.9,5.28,15.84,7.04ZM847.51,664.76c2.93,1.76,0,3.52-2.35,2.93-2.35-.59-4.69-1.17-7.62-2.93-2.93-1.76-7.04,0-11.73-.59-4.69-.59-9.38,0-12.9,1.17-3.52,1.17-6.45,4.11-9.38,4.11s-11.14,4.11-14.08,5.28c-2.93,1.17-11.73,2.93-13.49,2.93s-15.25,2.93-19.36,4.69c-4.11,1.76-13.49,2.93-18.18,2.93s-11.73-1.76-15.25-2.93c-3.52-1.17-11.14-4.69-12.32-6.45s-.59-5.28,1.76-3.52c2.35,1.76,9.38,2.35,12.9,4.11,3.52,1.76,9.97.59,14.08,0,4.11-.59,16.42-2.93,19.94-2.93s11.73-2.93,15.25-4.11c3.52-1.17,7.04-2.93,8.8-2.93s4.69-2.93,8.21-2.93,10.56-2.93,18.77-5.87c8.21-2.93,15.25-.59,21.11,0,5.87.59,12.9,5.28,15.84,7.04ZM627.57,694.68c-99.7-2.27-199.27,1.94-299.12-1.17-38.55,2.06-64.07-3.23-110.27,2.34-9.3-2.75-7.57-17.28,4.11-15.24,133.23,9.61,272.69,3.33,407.04,2.35,12.09,4.53,41.98-6.63,49.27,7.61-11.56,12.28-34.88-.33-51.03,4.11Z"/>
    </g>
    <g id="center_ornament" data-name="center ornament">
      <path class="cls-1" d="M618.86,362.84c5.57-1.06,12.32.58,17.99.18,10.4-.5,11.92-2.4,21.06,4.28,3.71,2.4,2.55,3.91-.3,6.28-2.91,2.86-5.84,4.52-9.86,4.09-7.21-.28-15.9.15-23.03.07-2.86-.05-7,.59-6.4-3.44.34-3.79-.74-8.78.54-11.46Z"/>
      <path class="cls-1" d="M980.79,377.27c-9.73,1.24-20.88-.14-30.8.37-2.66.42-10.92-5.31-10.16-8.12,5.51-6.3,12.76-8.21,20.94-6.59,6.04.4,12.43-.43,18.55-.45,1.42.08,2.11.2,2.28,1.38-.26,2.76,1.07,11.31-.81,13.42Z"/>
    </g>
  </g>
</svg>